<svg id="16b45b7e-c2b6-4a4e-beb8-7dc23d38b439" data-name="svg1901" xmlns="http://www.w3.org/2000/svg" viewBox="0 0 563.77 663.08"><title>Mesa de trabajo 1</title><g id="d6c41b89-55bc-4d41-a62d-938e86460f2d" data-name="layer2"><path id="17032644-fd9e-424a-ab2d-30bc4af32022" data-name="path2219" d="M500,215.42,427.6,370.57l-39.29,79.7-28.43.6a17.26,17.26,0,0,0-15.58,12S324.52,515,301.15,552.75c0,0-25.17,33-50.94,58.73,0,0-7.36,16.2-16.43-2.84l-12-21.47s-4.57-10-24.22,1.83l-40.64,15.8s-7.71,4.44-22.21-7.64L96,568.15S83.6,556.36,76.65,546.09c0,0-7-15.11-20.85-20.25,0,0-14.94-3.1-9.5-16.39,0,0,13.92-18,6.78-32.86,0,0-8.46-36-6.65-45.33,0,0-1.51-10,15.11-23,0,0,25.39-19.95,64.67-42l21.48-11.36s1.79-3.14,8.74,5.92c0,0,9.36,14.51,19.64,12.69,0,0,55-2.72,78.26-15.1,0,0,36.87-12.39,50.77-39l24.78-63.15s3.93-12.39-3-27.5c0,0-12.09-17.83-3.93-36.26l30.52-76.75s10.27-11.19,19.34-16.93l68-50.16s10-8.85,19.38,3.54l41.66,47.53s12.09,12.39-2.42,27.8l-34.15,41.7c-2,5.95-7.55,9.67,6.65,14.81C471.9,184.08,514.34,192.14,500,215.42Z" fill="none" stroke="#000" stroke-width="10"/><path id="453cbef2-8863-49d9-900c-64c4cf1322d9" data-name="path2221" d="M486.41,191.63l.6,8.46L473.72,233l-11.33,5.15-2.05,22.76s.38-.11-8.68,18.93L417.81,353.6l-.6,34.75" fill="none" stroke="#000" stroke-width="5.5"/><g id="f0510f55-1a4c-4779-8c77-11417912f45f" data-name="text6227" style="isolation:isolate"><g style="isolation:isolate"><path d="M416,440.83l1.37-.19a2.89,2.89,0,0,0,.49,1.8,1.55,1.55,0,0,0,1.21.48,1.73,1.73,0,0,0,1-.26,1.29,1.29,0,0,0,.57-.71,4.54,4.54,0,0,0,.16-1.43v-7.89h1.52v7.8a5.74,5.74,0,0,1-.35,2.23,2.51,2.51,0,0,1-1.1,1.2,3.62,3.62,0,0,1-1.77.41,3,3,0,0,1-2.31-.86A3.61,3.61,0,0,1,416,440.83Z"/><path d="M424.08,439.93a4.28,4.28,0,0,1,1.28-3.41,3.85,3.85,0,0,1,2.61-.93,3.74,3.74,0,0,1,2.8,1.13,4.26,4.26,0,0,1,1.08,3.09,5.48,5.48,0,0,1-.48,2.52,3.33,3.33,0,0,1-1.4,1.43,4,4,0,0,1-2,.51,3.77,3.77,0,0,1-2.82-1.12A4.5,4.5,0,0,1,424.08,439.93Zm1.45,0a3.57,3.57,0,0,0,.69,2.39,2.31,2.31,0,0,0,3.49,0,3.58,3.58,0,0,0,.7-2.43,3.47,3.47,0,0,0-.7-2.33,2.32,2.32,0,0,0-3.49,0A3.52,3.52,0,0,0,425.53,439.93Z"/><path d="M433.5,444.08v-8.3h1.27V437a3,3,0,0,1,2.64-1.37,3.47,3.47,0,0,1,1.38.27,2.19,2.19,0,0,1,.94.71,2.8,2.8,0,0,1,.44,1,8.59,8.59,0,0,1,.07,1.37v5.1h-1.4V439a3.71,3.71,0,0,0-.17-1.28,1.32,1.32,0,0,0-.58-.68,1.84,1.84,0,0,0-1-.26,2.28,2.28,0,0,0-1.55.57,2.85,2.85,0,0,0-.65,2.17v4.53Z"/><path d="M448.08,441.41l1.45.18a3.53,3.53,0,0,1-1.27,2,4.3,4.3,0,0,1-5.26-.41,4.4,4.4,0,0,1-1.07-3.15,4.59,4.59,0,0,1,1.08-3.25,3.66,3.66,0,0,1,2.8-1.16,3.55,3.55,0,0,1,2.72,1.14,4.51,4.51,0,0,1,1.05,3.19c0,.08,0,.2,0,.37h-6.19a3.18,3.18,0,0,0,.78,2.09,2.27,2.27,0,0,0,1.73.73,2.14,2.14,0,0,0,1.32-.41A2.63,2.63,0,0,0,448.08,441.41Zm-4.62-2.28h4.64a2.83,2.83,0,0,0-.54-1.57,2.13,2.13,0,0,0-1.74-.81,2.26,2.26,0,0,0-1.63.65A2.57,2.57,0,0,0,443.46,439.13Z"/><path d="M450.74,441.6l1.39-.22a2,2,0,0,0,.65,1.29,2.31,2.31,0,0,0,1.5.44,2.2,2.2,0,0,0,1.43-.39,1.18,1.18,0,0,0,.47-.93.86.86,0,0,0-.41-.75,6.59,6.59,0,0,0-1.44-.48,12.9,12.9,0,0,1-2.14-.67,2.14,2.14,0,0,1-.91-.79A2.07,2.07,0,0,1,451,438a2.24,2.24,0,0,1,.25-1,2.21,2.21,0,0,1,.7-.79,3,3,0,0,1,.89-.41,4.33,4.33,0,0,1,1.22-.17,4.71,4.71,0,0,1,1.71.29,2.27,2.27,0,0,1,1.09.76,2.93,2.93,0,0,1,.48,1.28l-1.37.19a1.48,1.48,0,0,0-.54-1,2,2,0,0,0-1.27-.36,2.35,2.35,0,0,0-1.39.32,1,1,0,0,0-.41.75.79.79,0,0,0,.17.49,1.25,1.25,0,0,0,.54.38l1.24.36a16.6,16.6,0,0,1,2.09.65,2.12,2.12,0,0,1,.92.74,2.07,2.07,0,0,1,.34,1.2,2.42,2.42,0,0,1-.41,1.33,2.73,2.73,0,0,1-1.19,1,4.4,4.4,0,0,1-1.75.34,3.88,3.88,0,0,1-2.46-.68A3,3,0,0,1,450.74,441.6Z"/></g></g><g id="8c4d6cf8-aca3-4c86-a40a-102b3ae17f0c" data-name="text2294" style="isolation:isolate"><g style="isolation:isolate"><path d="M267.44,457.47V446h4.29a5.38,5.38,0,0,1,2.11.34,2.76,2.76,0,0,1,1.24,1.07,2.86,2.86,0,0,1,.45,1.52,2.54,2.54,0,0,1-.4,1.38,2.83,2.83,0,0,1-1.2,1.05,3,3,0,0,1,1.6,1,2.76,2.76,0,0,1,.56,1.73,3.47,3.47,0,0,1-.34,1.5,3,3,0,0,1-.84,1.06,3.58,3.58,0,0,1-1.26.57,7.48,7.48,0,0,1-1.84.19Zm1.51-6.64h2.48a5.58,5.58,0,0,0,1.45-.13,1.71,1.71,0,0,0,.87-.57,1.69,1.69,0,0,0,.29-1,1.88,1.88,0,0,0-.27-1,1.38,1.38,0,0,0-.79-.59,6.3,6.3,0,0,0-1.74-.16H269Zm0,5.29h2.86a6.07,6.07,0,0,0,1-.06,2.29,2.29,0,0,0,.87-.31,1.58,1.58,0,0,0,.58-.64,2,2,0,0,0,.23-1,1.87,1.87,0,0,0-.33-1.11,1.72,1.72,0,0,0-.91-.67,5.61,5.61,0,0,0-1.68-.19H269Z"/><path d="M278,457.47v-8.3h1.26v1.26a3.32,3.32,0,0,1,.9-1.16,1.52,1.52,0,0,1,.9-.28,2.72,2.72,0,0,1,1.44.45l-.48,1.3a2,2,0,0,0-1-.3,1.32,1.32,0,0,0-.83.28,1.47,1.47,0,0,0-.52.77,5.33,5.33,0,0,0-.24,1.64v4.34Z"/><path d="M288.73,456.45a5.2,5.2,0,0,1-1.5.93,4.18,4.18,0,0,1-1.55.28,3,3,0,0,1-2.1-.67,2.23,2.23,0,0,1-.74-1.71,2.34,2.34,0,0,1,.28-1.11,2.29,2.29,0,0,1,.73-.81,3.33,3.33,0,0,1,1-.46,11.25,11.25,0,0,1,1.25-.21,12.94,12.94,0,0,0,2.51-.49c0-.19,0-.31,0-.36a1.55,1.55,0,0,0-.4-1.21,2.35,2.35,0,0,0-1.6-.48,2.51,2.51,0,0,0-1.47.35,2.13,2.13,0,0,0-.7,1.23l-1.37-.19a3.48,3.48,0,0,1,.61-1.43,2.67,2.67,0,0,1,1.25-.83,5.38,5.38,0,0,1,1.88-.29,5,5,0,0,1,1.73.25,2,2,0,0,1,1.41,1.58,7.59,7.59,0,0,1,.07,1.3V454a19.75,19.75,0,0,0,.09,2.48,3.31,3.31,0,0,0,.35,1H289A3.05,3.05,0,0,1,288.73,456.45Zm-.11-3.14a11.14,11.14,0,0,1-2.3.53,4.9,4.9,0,0,0-1.23.28,1.23,1.23,0,0,0-.75,1.12,1.21,1.21,0,0,0,.43.94,1.83,1.83,0,0,0,1.25.38,2.85,2.85,0,0,0,1.44-.36,2.23,2.23,0,0,0,.93-1,3.43,3.43,0,0,0,.23-1.41Z"/><path d="M293.52,457.47h-1.31V446h1.41v4.08a2.78,2.78,0,0,1,2.27-1.11,3.59,3.59,0,0,1,1.45.3,3,3,0,0,1,1.12.87,4.11,4.11,0,0,1,.7,1.35,5.8,5.8,0,0,1,.25,1.69,4.73,4.73,0,0,1-1.06,3.29,3.29,3.29,0,0,1-2.53,1.17,2.62,2.62,0,0,1-2.3-1.23Zm0-4.21a4.36,4.36,0,0,0,.41,2.16,2,2,0,0,0,1.79,1.08,2,2,0,0,0,1.6-.8,3.62,3.62,0,0,0,.67-2.39,3.67,3.67,0,0,0-.65-2.39,1.94,1.94,0,0,0-1.55-.78,2,2,0,0,0-1.6.8A3.53,3.53,0,0,0,293.5,453.26Z"/><path d="M301.12,457.47V446h1.4v4.11A3.16,3.16,0,0,1,305,449a3.37,3.37,0,0,1,1.6.36,2.13,2.13,0,0,1,1,1,4.55,4.55,0,0,1,.3,1.86v5.26h-1.41v-5.26a2.14,2.14,0,0,0-.46-1.53,1.68,1.68,0,0,0-1.29-.48,2.25,2.25,0,0,0-1.18.32,1.84,1.84,0,0,0-.78.88,4,4,0,0,0-.24,1.53v4.54Z"/><path d="M315.43,456.45a5.2,5.2,0,0,1-1.5.93,4.22,4.22,0,0,1-1.55.28,3.05,3.05,0,0,1-2.11-.67,2.36,2.36,0,0,1-.45-2.82,2.18,2.18,0,0,1,.72-.81,3.44,3.44,0,0,1,1-.46,11.68,11.68,0,0,1,1.25-.21,12.78,12.78,0,0,0,2.51-.49c0-.19,0-.31,0-.36a1.52,1.52,0,0,0-.4-1.21,2.34,2.34,0,0,0-1.6-.48,2.47,2.47,0,0,0-1.46.35,2.08,2.08,0,0,0-.7,1.23l-1.38-.19a3.49,3.49,0,0,1,.62-1.43,2.64,2.64,0,0,1,1.24-.83,5.42,5.42,0,0,1,1.88-.29,4.91,4.91,0,0,1,1.73.25,2.27,2.27,0,0,1,1,.62,2.35,2.35,0,0,1,.43,1,7.59,7.59,0,0,1,.07,1.3V454a19.75,19.75,0,0,0,.09,2.48,3.08,3.08,0,0,0,.36,1h-1.47A3.05,3.05,0,0,1,315.43,456.45Zm-.12-3.14a11,11,0,0,1-2.29.53,4.9,4.9,0,0,0-1.23.28,1.22,1.22,0,0,0-.56.46,1.18,1.18,0,0,0-.19.66,1.2,1.2,0,0,0,.42.94,1.85,1.85,0,0,0,1.25.38,2.91,2.91,0,0,0,1.45-.36,2.23,2.23,0,0,0,.93-1,3.46,3.46,0,0,0,.22-1.41Z"/><path d="M318.91,457.47v-8.3h1.26v1.17a2.92,2.92,0,0,1,2.52-1.35,2.69,2.69,0,0,1,1.51.38,2,2,0,0,1,.83,1.07,3,3,0,0,1,2.56-1.45,2.5,2.5,0,0,1,1.9.68,2.94,2.94,0,0,1,.67,2.1v5.7h-1.4v-5.23a3.85,3.85,0,0,0-.14-1.21,1.2,1.2,0,0,0-.49-.6,1.59,1.59,0,0,0-.85-.23,2,2,0,0,0-1.45.59,2.53,2.53,0,0,0-.58,1.86v4.82h-1.41v-5.39a2.39,2.39,0,0,0-.34-1.41,1.3,1.3,0,0,0-1.12-.47,2,2,0,0,0-1.1.32,1.71,1.71,0,0,0-.73.91,5.17,5.17,0,0,0-.23,1.74v4.3Z"/></g></g><g id="948104cf-9a7b-4ace-911e-b1259b793a79" data-name="text2298" style="isolation:isolate"><g style="isolation:isolate"><path d="M275.64,653.18l-3-11.45h1.55l1.74,7.51c.19.78.35,1.56.49,2.34.29-1.22.46-1.93.51-2.12l2.18-7.73h1.83l1.64,5.79a30.58,30.58,0,0,1,.89,4.06c.15-.72.34-1.56.57-2.49l1.8-7.36h1.52l-3.14,11.45h-1.46l-2.41-8.73c-.21-.72-.33-1.17-.36-1.34-.12.53-.23,1-.34,1.34l-2.43,8.73Z"/><path d="M288.56,653.18V641.73H290v4.11a3.16,3.16,0,0,1,2.49-1.14,3.37,3.37,0,0,1,1.6.36,2.13,2.13,0,0,1,1,1,4.55,4.55,0,0,1,.3,1.86v5.26h-1.41v-5.26a2.14,2.14,0,0,0-.46-1.53,1.68,1.68,0,0,0-1.29-.48,2.35,2.35,0,0,0-1.18.32,1.84,1.84,0,0,0-.78.88,4,4,0,0,0-.24,1.53v4.54Z"/><path d="M297.46,643.34v-1.61h1.41v1.61Zm0,9.84v-8.3h1.41v8.3Z"/><path d="M304.08,651.92l.2,1.25a5.37,5.37,0,0,1-1.06.12,2.46,2.46,0,0,1-1.19-.24,1.34,1.34,0,0,1-.59-.64,5.19,5.19,0,0,1-.17-1.66V646h-1v-1.1h1v-2l1.4-.84v2.89h1.41V646h-1.41v4.85a2.44,2.44,0,0,0,.07.77.6.6,0,0,0,.24.28,1,1,0,0,0,.48.1A4.11,4.11,0,0,0,304.08,651.92Z"/><path d="M311.14,650.51l1.45.18a3.61,3.61,0,0,1-1.27,2,3.91,3.91,0,0,1-2.38.7,3.8,3.8,0,0,1-2.89-1.12A4.4,4.4,0,0,1,305,649.1a4.59,4.59,0,0,1,1.08-3.25,3.63,3.63,0,0,1,2.79-1.15,3.56,3.56,0,0,1,2.72,1.13,4.53,4.53,0,0,1,1.06,3.19c0,.08,0,.21,0,.37h-6.19a3.23,3.23,0,0,0,.77,2.1,2.32,2.32,0,0,0,1.74.72,2.18,2.18,0,0,0,1.32-.4A2.8,2.8,0,0,0,311.14,650.51Zm-4.62-2.27h4.63a2.77,2.77,0,0,0-.53-1.57,2.14,2.14,0,0,0-1.74-.82,2.24,2.24,0,0,0-1.63.65A2.58,2.58,0,0,0,306.52,648.24Z"/><path d="M319.14,653.18V646h-1.25v-1.1h1.25V644a3.85,3.85,0,0,1,.14-1.24,1.89,1.89,0,0,1,.72-.89,2.63,2.63,0,0,1,1.43-.34,7.24,7.24,0,0,1,1.32.14l-.22,1.23a4.83,4.83,0,0,0-.82-.08,1.25,1.25,0,0,0-.91.27,1.5,1.5,0,0,0-.27,1v.76h1.62V646h-1.62v7.2Z"/><path d="M322.72,649a4.29,4.29,0,0,1,1.28-3.41,3.91,3.91,0,0,1,2.61-.92,3.73,3.73,0,0,1,2.8,1.12,4.29,4.29,0,0,1,1.09,3.1,5.46,5.46,0,0,1-.49,2.51,3.36,3.36,0,0,1-1.39,1.43,4.09,4.09,0,0,1-2,.51,3.69,3.69,0,0,1-2.81-1.12A4.44,4.44,0,0,1,322.72,649Zm1.45,0a3.57,3.57,0,0,0,.69,2.39,2.24,2.24,0,0,0,1.75.79,2.2,2.2,0,0,0,1.74-.79,3.6,3.6,0,0,0,.7-2.43,3.43,3.43,0,0,0-.7-2.34,2.26,2.26,0,0,0-1.74-.79,2.24,2.24,0,0,0-1.75.79A3.54,3.54,0,0,0,324.17,649Z"/><path d="M332.13,653.18v-8.3h1.26v1.26a3.42,3.42,0,0,1,.9-1.16,1.52,1.52,0,0,1,.9-.28,2.78,2.78,0,0,1,1.45.45l-.49,1.3a2,2,0,0,0-1-.3,1.32,1.32,0,0,0-.83.28,1.47,1.47,0,0,0-.52.77,5.33,5.33,0,0,0-.24,1.64v4.34Z"/><path d="M342.85,653.18v-1a2.56,2.56,0,0,1-2.32,1.24,3.19,3.19,0,0,1-1.82-.55,3.61,3.61,0,0,1-1.29-1.53A5.32,5.32,0,0,1,337,649a5.78,5.78,0,0,1,.42-2.25,3.17,3.17,0,0,1,1.24-1.55,3.31,3.31,0,0,1,1.85-.54,2.79,2.79,0,0,1,1.34.31,2.73,2.73,0,0,1,.95.83v-4.11h1.4v11.45ZM338.41,649a3.58,3.58,0,0,0,.67,2.38,2,2,0,0,0,1.59.79,2,2,0,0,0,1.56-.75,3.47,3.47,0,0,0,.65-2.3,3.87,3.87,0,0,0-.66-2.5,2,2,0,0,0-1.62-.8,2,2,0,0,0-1.56.77A3.76,3.76,0,0,0,338.41,649Z"/></g></g><g id="cd6aadf6-729b-48c9-98c5-56bc1ce5b12e" data-name="text2302" style="isolation:isolate"><g style="isolation:isolate"><path d="M1.17,385.69V374.24H2.69v10.1H8.33v1.35Z"/><path d="M15.37,384.67a5.24,5.24,0,0,1-1.51.93,4.18,4.18,0,0,1-1.55.28,3,3,0,0,1-2.1-.67,2.22,2.22,0,0,1-.73-1.71,2.28,2.28,0,0,1,1-1.92,3.44,3.44,0,0,1,1-.46,9.28,9.28,0,0,1,1.25-.21,12.94,12.94,0,0,0,2.51-.49c0-.19,0-.31,0-.36a1.56,1.56,0,0,0-.4-1.22,2.39,2.39,0,0,0-1.6-.47,2.45,2.45,0,0,0-1.47.35,2.19,2.19,0,0,0-.7,1.23l-1.37-.19a3.36,3.36,0,0,1,.62-1.43,2.64,2.64,0,0,1,1.24-.83,5.41,5.41,0,0,1,1.88-.3,5.15,5.15,0,0,1,1.73.25,2.27,2.27,0,0,1,1,.63,2.18,2.18,0,0,1,.44,1,7.59,7.59,0,0,1,.07,1.3v1.87a19.75,19.75,0,0,0,.09,2.48,3.08,3.08,0,0,0,.36,1H15.65A2.83,2.83,0,0,1,15.37,384.67Zm-.12-3.15a10.42,10.42,0,0,1-2.3.54,4.91,4.91,0,0,0-1.22.28,1.2,1.2,0,0,0-.56.45,1.27,1.27,0,0,0,.23,1.61,1.85,1.85,0,0,0,1.25.37,2.85,2.85,0,0,0,1.44-.35,2.12,2.12,0,0,0,.93-1,3.43,3.43,0,0,0,.23-1.41Z"/><path d="M24.29,385.69v-1.22a3,3,0,0,1-2.63,1.41,3.3,3.3,0,0,1-1.37-.29,2.23,2.23,0,0,1-.95-.7,2.56,2.56,0,0,1-.43-1.05,6.74,6.74,0,0,1-.09-1.31v-5.14h1.41V382a8.19,8.19,0,0,0,.08,1.49,1.46,1.46,0,0,0,.57.87,1.73,1.73,0,0,0,1.06.32,2.32,2.32,0,0,0,1.19-.33,1.75,1.75,0,0,0,.78-.88,4.49,4.49,0,0,0,.23-1.62v-4.45h1.41v8.3Z"/><path d="M33.13,385.69v-1.05a2.56,2.56,0,0,1-2.32,1.24,3.27,3.27,0,0,1-1.82-.55,3.48,3.48,0,0,1-1.29-1.53,5.17,5.17,0,0,1-.46-2.25,5.87,5.87,0,0,1,.42-2.26,3.26,3.26,0,0,1,1.24-1.55,3.31,3.31,0,0,1,1.85-.54,2.79,2.79,0,0,1,1.34.32,2.91,2.91,0,0,1,.95.82v-4.1h1.4v11.45Zm-4.44-4.14a3.6,3.6,0,0,0,.67,2.38,2,2,0,0,0,1.59.79,2,2,0,0,0,1.56-.75,3.49,3.49,0,0,0,.65-2.3,3.87,3.87,0,0,0-.66-2.5,2,2,0,0,0-1.62-.8,1.94,1.94,0,0,0-1.56.76A3.79,3.79,0,0,0,28.69,381.55Z"/><path d="M42.06,384.67a5.2,5.2,0,0,1-1.5.93,4.18,4.18,0,0,1-1.55.28,3,3,0,0,1-2.1-.67,2.23,2.23,0,0,1-.74-1.71,2.32,2.32,0,0,1,1-1.92,3.33,3.33,0,0,1,1-.46,9,9,0,0,1,1.25-.21,13.1,13.1,0,0,0,2.51-.49v-.36a1.56,1.56,0,0,0-.4-1.22,2.37,2.37,0,0,0-1.6-.47,2.4,2.4,0,0,0-1.46.35,2.08,2.08,0,0,0-.7,1.23l-1.38-.19a3.62,3.62,0,0,1,.62-1.43,2.69,2.69,0,0,1,1.24-.83,5.47,5.47,0,0,1,1.89-.3,5.13,5.13,0,0,1,1.72.25A2,2,0,0,1,43.3,379a8.83,8.83,0,0,1,.07,1.3v1.87a19.75,19.75,0,0,0,.09,2.48,3.31,3.31,0,0,0,.35,1H42.34A3.05,3.05,0,0,1,42.06,384.67ZM42,381.52a10.56,10.56,0,0,1-2.3.54,4.9,4.9,0,0,0-1.23.28,1.17,1.17,0,0,0-.55.45,1.22,1.22,0,0,0-.2.67,1.18,1.18,0,0,0,.43.94,1.82,1.82,0,0,0,1.24.37,2.86,2.86,0,0,0,1.45-.35,2.23,2.23,0,0,0,.93-1A3.43,3.43,0,0,0,42,382Z"/></g></g><g id="295576d6-48bc-4f74-9159-028ad88e5798" data-name="text2306" style="isolation:isolate"><g style="isolation:isolate"><path d="M172.6,347.93l1.52.38a5.07,5.07,0,0,1-1.72,2.85,4.72,4.72,0,0,1-3,1,5.49,5.49,0,0,1-3-.75,4.72,4.72,0,0,1-1.76-2.19,7.65,7.65,0,0,1-.61-3.07,6.71,6.71,0,0,1,.69-3.12,4.62,4.62,0,0,1,1.94-2,5.7,5.7,0,0,1,2.78-.69,4.72,4.72,0,0,1,2.89.87,4.61,4.61,0,0,1,1.63,2.46l-1.49.35a3.55,3.55,0,0,0-1.16-1.82,3.06,3.06,0,0,0-1.9-.57,3.66,3.66,0,0,0-2.21.64,3.36,3.36,0,0,0-1.25,1.7,6.81,6.81,0,0,0-.36,2.2,7.09,7.09,0,0,0,.43,2.55,3.16,3.16,0,0,0,1.32,1.62,3.72,3.72,0,0,0,1.95.54,3.27,3.27,0,0,0,2.16-.73A3.82,3.82,0,0,0,172.6,347.93Z"/><path d="M175.77,352V340.49h1.41V352Z"/><path d="M184.77,350.92a5.26,5.26,0,0,1-1.5.94,4.39,4.39,0,0,1-1.55.27,3,3,0,0,1-2.1-.66,2.23,2.23,0,0,1-.74-1.71,2.35,2.35,0,0,1,.28-1.12,2.25,2.25,0,0,1,.73-.8,3.1,3.1,0,0,1,1-.46,8.69,8.69,0,0,1,1.25-.22,12.5,12.5,0,0,0,2.51-.48v-.37a1.58,1.58,0,0,0-.39-1.21,2.36,2.36,0,0,0-1.61-.47,2.48,2.48,0,0,0-1.46.34,2.08,2.08,0,0,0-.7,1.23l-1.37-.18a3.42,3.42,0,0,1,.61-1.43,2.78,2.78,0,0,1,1.24-.84,5.73,5.73,0,0,1,1.89-.29,4.85,4.85,0,0,1,1.72.25,2.31,2.31,0,0,1,1,.63,2.25,2.25,0,0,1,.44,1,8.76,8.76,0,0,1,.07,1.29v1.88a19.87,19.87,0,0,0,.09,2.48,3.31,3.31,0,0,0,.35,1h-1.47A3.18,3.18,0,0,1,184.77,350.92Zm-.11-3.14a10,10,0,0,1-2.3.53,6,6,0,0,0-1.23.28,1.25,1.25,0,0,0-.55.46,1.23,1.23,0,0,0,.23,1.61,1.82,1.82,0,0,0,1.24.37,3,3,0,0,0,1.45-.35,2.25,2.25,0,0,0,.93-1,3.35,3.35,0,0,0,.23-1.4Z"/><path d="M188.24,352v-8.3h1.27v1.26a3.49,3.49,0,0,1,.89-1.17,1.57,1.57,0,0,1,.9-.28,2.76,2.76,0,0,1,1.45.45l-.48,1.31a2.08,2.08,0,0,0-1-.31,1.35,1.35,0,0,0-.82.28,1.53,1.53,0,0,0-.53.77,5.7,5.7,0,0,0-.23,1.64V352Z"/><path d="M193.59,352V340.49H195V347l3.33-3.37h1.82L197,346.73l3.49,5.22h-1.74L196,347.7l-1,1V352Z"/></g></g><g id="4df75425-2b99-4cd3-96bd-61a8656cda53" data-name="text2310" style="isolation:isolate"><g style="isolation:isolate"><path d="M322.46,111.45V100H324v4.71h6V100h1.51v11.46h-1.51v-5.4h-6v5.4Z"/><path d="M333.79,101.61V100h1.41v1.62Zm0,9.84v-8.3h1.41v8.3Z"/><path d="M337.31,111.45V100h1.4v11.46Z"/><path d="M340.86,111.45V100h1.41v11.46Z"/></g></g><g id="61dc037b-769a-4837-ab70-2bba47190947" data-name="text2314" style="isolation:isolate"><g style="isolation:isolate"><path d="M389.56,38.13,394,26.68h1.63l4.69,11.45h-1.73l-1.33-3.47h-4.79l-1.26,3.47Zm3.3-4.7h3.89l-1.2-3.17c-.36-1-.63-1.76-.81-2.38a14.3,14.3,0,0,1-.62,2.19Z"/><path d="M400.75,35.66l1.39-.22a2,2,0,0,0,.65,1.28,2.33,2.33,0,0,0,1.5.44,2.2,2.2,0,0,0,1.43-.39,1.15,1.15,0,0,0,.47-.93.88.88,0,0,0-.41-.75,6.42,6.42,0,0,0-1.44-.47,12.66,12.66,0,0,1-2.14-.68,2.08,2.08,0,0,1-.91-.79A2,2,0,0,1,401,32a2.16,2.16,0,0,1,.26-1,2.07,2.07,0,0,1,.69-.78,2.64,2.64,0,0,1,.89-.41,4,4,0,0,1,1.22-.17,4.72,4.72,0,0,1,1.71.28,2.34,2.34,0,0,1,1.09.76,2.93,2.93,0,0,1,.49,1.29l-1.38.18a1.51,1.51,0,0,0-.54-1,2,2,0,0,0-1.27-.36,2.35,2.35,0,0,0-1.39.32,1,1,0,0,0-.41.75.82.82,0,0,0,.17.5,1.32,1.32,0,0,0,.54.37l1.24.36a18.5,18.5,0,0,1,2.09.65,2.12,2.12,0,0,1,.92.74,2.1,2.1,0,0,1,.34,1.2,2.42,2.42,0,0,1-.41,1.33A2.73,2.73,0,0,1,406,38a4.24,4.24,0,0,1-1.75.34,3.88,3.88,0,0,1-2.46-.67A3.07,3.07,0,0,1,400.75,35.66Z"/><path d="M414.72,35.09l1.39.18A3.63,3.63,0,0,1,415,37.51a3.4,3.4,0,0,1-2.3.81,3.54,3.54,0,0,1-2.73-1.11,4.5,4.5,0,0,1-1-3.2,5.76,5.76,0,0,1,.45-2.35,3.07,3.07,0,0,1,1.35-1.51,4.1,4.1,0,0,1,2-.5,3.47,3.47,0,0,1,2.21.68,3.14,3.14,0,0,1,1.1,1.94l-1.36.21a2.27,2.27,0,0,0-.69-1.25,1.79,1.79,0,0,0-1.2-.43,2.18,2.18,0,0,0-1.73.77,3.62,3.62,0,0,0-.66,2.41,3.74,3.74,0,0,0,.64,2.43,2.08,2.08,0,0,0,1.67.75,2,2,0,0,0,1.38-.5A2.53,2.53,0,0,0,414.72,35.09Z"/><path d="M422.72,37.11a5.49,5.49,0,0,1-1.5.94,4.39,4.39,0,0,1-1.55.27,3,3,0,0,1-2.1-.67,2.2,2.2,0,0,1-.74-1.71,2.23,2.23,0,0,1,.28-1.11,2.37,2.37,0,0,1,.73-.81,3.59,3.59,0,0,1,1-.46,10.84,10.84,0,0,1,1.25-.21,13.26,13.26,0,0,0,2.51-.48V32.5a1.57,1.57,0,0,0-.39-1.21,2.36,2.36,0,0,0-1.61-.48,2.47,2.47,0,0,0-1.46.35,2.08,2.08,0,0,0-.7,1.23l-1.37-.19a3.38,3.38,0,0,1,.61-1.42,2.71,2.71,0,0,1,1.24-.84,5.73,5.73,0,0,1,1.89-.29,4.89,4.89,0,0,1,1.72.25,2.14,2.14,0,0,1,1,.63,2.26,2.26,0,0,1,.44.95,8.93,8.93,0,0,1,.07,1.3v1.88a20,20,0,0,0,.09,2.48,3.35,3.35,0,0,0,.35,1H423A3.05,3.05,0,0,1,422.72,37.11ZM422.61,34a10.66,10.66,0,0,1-2.3.53,5.39,5.39,0,0,0-1.23.28,1.23,1.23,0,0,0-.75,1.13,1.17,1.17,0,0,0,.43.93,1.82,1.82,0,0,0,1.24.38,2.86,2.86,0,0,0,1.45-.36,2.18,2.18,0,0,0,.93-1,3.43,3.43,0,0,0,.23-1.41Z"/><path d="M426.19,38.13V29.84h1.27v1.25a3.43,3.43,0,0,1,.89-1.16,1.57,1.57,0,0,1,.9-.28,2.76,2.76,0,0,1,1.45.45l-.48,1.31a2,2,0,0,0-1-.31,1.29,1.29,0,0,0-.82.28,1.49,1.49,0,0,0-.53.77,5.65,5.65,0,0,0-.23,1.64v4.34Z"/><path d="M431.54,28.3V26.68H433V28.3Zm0,9.83V29.84H433v8.29Z"/></g></g><g id="9fcfb406-191b-41d3-8cab-a0a487b9dfa4" data-name="text2318" style="isolation:isolate"><g style="isolation:isolate"><path d="M510.24,81.39l1.43-.13a3.18,3.18,0,0,0,.48,1.41,2.47,2.47,0,0,0,1.15.89,4.32,4.32,0,0,0,1.76.34,4.09,4.09,0,0,0,1.53-.26,2.14,2.14,0,0,0,1-.7,1.69,1.69,0,0,0,.32-1,1.46,1.46,0,0,0-.31-.94,2.29,2.29,0,0,0-1-.68,19.68,19.68,0,0,0-2-.56,10.35,10.35,0,0,1-2.21-.71A3.19,3.19,0,0,1,511.08,78a2.7,2.7,0,0,1-.4-1.43,2.93,2.93,0,0,1,.49-1.62,3.07,3.07,0,0,1,1.44-1.14,5.46,5.46,0,0,1,2.1-.39,5.65,5.65,0,0,1,2.25.41,3.15,3.15,0,0,1,1.49,1.2,3.55,3.55,0,0,1,.57,1.81l-1.46.11a2.32,2.32,0,0,0-.79-1.64,3.08,3.08,0,0,0-2-.56,3.18,3.18,0,0,0-2,.51,1.5,1.5,0,0,0-.63,1.21,1.31,1.31,0,0,0,.45,1,6,6,0,0,0,2.28.81,16.37,16.37,0,0,1,2.54.73,3.48,3.48,0,0,1,1.47,1.17,2.84,2.84,0,0,1,.48,1.63,3.07,3.07,0,0,1-.52,1.72,3.44,3.44,0,0,1-1.51,1.26,5.21,5.21,0,0,1-2.2.45,6.64,6.64,0,0,1-2.61-.45,3.64,3.64,0,0,1-1.65-1.37A3.81,3.81,0,0,1,510.24,81.39Z"/><path d="M524.32,83.81l.2,1.24a5.45,5.45,0,0,1-1.06.13,2.45,2.45,0,0,1-1.19-.25,1.37,1.37,0,0,1-.59-.63,5.23,5.23,0,0,1-.17-1.66V77.86h-1V76.77h1V74.71l1.4-.84v2.9h1.41v1.09h-1.41v4.85a2.52,2.52,0,0,0,.07.78.62.62,0,0,0,.24.27,1,1,0,0,0,.48.1A5.62,5.62,0,0,0,524.32,83.81Z"/><path d="M531.38,82.39l1.45.18a3.55,3.55,0,0,1-1.27,2,3.84,3.84,0,0,1-2.38.7,3.8,3.8,0,0,1-2.89-1.12A4.36,4.36,0,0,1,525.23,81a4.57,4.57,0,0,1,1.08-3.25,3.64,3.64,0,0,1,2.79-1.16,3.56,3.56,0,0,1,2.72,1.13,4.53,4.53,0,0,1,1.06,3.19c0,.09,0,.21,0,.38h-6.19a3.18,3.18,0,0,0,.77,2.09,2.31,2.31,0,0,0,1.74.73,2.18,2.18,0,0,0,1.32-.41A2.75,2.75,0,0,0,531.38,82.39Zm-4.62-2.27h4.63a2.8,2.8,0,0,0-.53-1.57,2.16,2.16,0,0,0-1.74-.81,2.2,2.2,0,0,0-1.63.65A2.57,2.57,0,0,0,526.76,80.12Z"/><path d="M536.13,85.07l-2.54-8.3H535l1.32,4.79.49,1.78c0-.09.17-.66.43-1.71l1.32-4.86h1.45l1.24,4.81.41,1.59.48-1.6,1.42-4.8H545l-2.59,8.3h-1.46l-1.33-5-.32-1.42-1.68,6.39Z"/><path d="M551.56,84a5,5,0,0,1-1.5.94,4.39,4.39,0,0,1-1.55.27,3,3,0,0,1-2.1-.66,2.23,2.23,0,0,1-.74-1.71,2.32,2.32,0,0,1,1-1.92,3.1,3.1,0,0,1,1-.46,8.69,8.69,0,0,1,1.25-.22,12.5,12.5,0,0,0,2.51-.48v-.37a1.58,1.58,0,0,0-.39-1.21,2.36,2.36,0,0,0-1.61-.47,2.48,2.48,0,0,0-1.46.34,2.11,2.11,0,0,0-.7,1.23l-1.37-.18a3.42,3.42,0,0,1,.61-1.43,2.78,2.78,0,0,1,1.24-.84,5.73,5.73,0,0,1,1.89-.29,4.85,4.85,0,0,1,1.72.25,2.31,2.31,0,0,1,1,.63,2.25,2.25,0,0,1,.44,1,8.76,8.76,0,0,1,.07,1.29v1.88a19.87,19.87,0,0,0,.09,2.48,3.31,3.31,0,0,0,.35,1h-1.47A3.45,3.45,0,0,1,551.56,84Zm-.11-3.14a10,10,0,0,1-2.3.53,6,6,0,0,0-1.23.28,1.25,1.25,0,0,0-.55.46,1.2,1.2,0,0,0-.2.67,1.23,1.23,0,0,0,.43.94,1.82,1.82,0,0,0,1.24.37,3,3,0,0,0,1.45-.35,2.2,2.2,0,0,0,.93-1,3.35,3.35,0,0,0,.23-1.4Z"/><path d="M555,85.07v-8.3h1.27V78a3.49,3.49,0,0,1,.89-1.17,1.65,1.65,0,0,1,.9-.28,2.76,2.76,0,0,1,1.45.45l-.48,1.31a2.08,2.08,0,0,0-1-.31,1.35,1.35,0,0,0-.82.28,1.53,1.53,0,0,0-.53.77,5.7,5.7,0,0,0-.23,1.64v4.35Z"/><path d="M563.45,83.81l.2,1.24a5.54,5.54,0,0,1-1.06.13,2.42,2.42,0,0,1-1.19-.25,1.32,1.32,0,0,1-.59-.63,4.86,4.86,0,0,1-.18-1.66V77.86h-1V76.77h1V74.71l1.4-.84v2.9h1.42v1.09H562v4.85a2.41,2.41,0,0,0,.08.78.62.62,0,0,0,.24.27.9.9,0,0,0,.48.1A5.81,5.81,0,0,0,563.45,83.81Z"/></g></g><g id="7a782af5-87bb-4e45-ad4d-9d03f693e4a6" data-name="text2322" style="isolation:isolate"><g style="isolation:isolate"><path d="M413.21,156.23V144.78h4.32a10.71,10.71,0,0,1,1.74.11,3.48,3.48,0,0,1,1.42.53,2.87,2.87,0,0,1,.91,1.11,3.4,3.4,0,0,1,.35,1.56,3.54,3.54,0,0,1-.93,2.48,4.48,4.48,0,0,1-3.36,1h-2.93v4.65Zm1.52-6h3a3.14,3.14,0,0,0,2.08-.55,2,2,0,0,0,.62-1.54,2.08,2.08,0,0,0-.36-1.23,1.77,1.77,0,0,0-1-.68,7.09,7.09,0,0,0-1.41-.1h-2.93Z"/><path d="M423.69,156.23v-8.29H425v1.25a3.53,3.53,0,0,1,.9-1.16,1.52,1.52,0,0,1,.9-.28,2.72,2.72,0,0,1,1.44.45l-.48,1.31a2,2,0,0,0-1-.31,1.38,1.38,0,0,0-.83.28,1.47,1.47,0,0,0-.52.77,5.37,5.37,0,0,0-.24,1.64v4.34Z"/><path d="M428.51,152.09a4.27,4.27,0,0,1,1.28-3.42,3.87,3.87,0,0,1,2.61-.92,3.69,3.69,0,0,1,2.79,1.12,4.25,4.25,0,0,1,1.09,3.1,5.48,5.48,0,0,1-.48,2.52,3.42,3.42,0,0,1-1.4,1.42,4,4,0,0,1-2,.51,3.73,3.73,0,0,1-2.82-1.12A4.46,4.46,0,0,1,428.51,152.09Zm1.44,0a3.49,3.49,0,0,0,.7,2.38,2.32,2.32,0,0,0,3.49,0,3.63,3.63,0,0,0,.69-2.43,3.43,3.43,0,0,0-.69-2.33,2.31,2.31,0,0,0-3.49,0A3.5,3.5,0,0,0,430,152.09Z"/><path d="M437.37,153.76l1.39-.22a1.89,1.89,0,0,0,.65,1.28,2.26,2.26,0,0,0,1.5.44,2.2,2.2,0,0,0,1.43-.39,1.15,1.15,0,0,0,.47-.93.88.88,0,0,0-.41-.75,6.23,6.23,0,0,0-1.44-.47,12.66,12.66,0,0,1-2.14-.68,2.08,2.08,0,0,1-.91-.79,2,2,0,0,1-.31-1.11,2.16,2.16,0,0,1,.95-1.81,2.74,2.74,0,0,1,.89-.41,4,4,0,0,1,1.22-.17,4.72,4.72,0,0,1,1.71.28,2.34,2.34,0,0,1,1.09.76,2.93,2.93,0,0,1,.48,1.29l-1.37.18a1.51,1.51,0,0,0-.54-1,2.06,2.06,0,0,0-1.27-.35,2.28,2.28,0,0,0-1.39.32.93.93,0,0,0-.41.75.81.81,0,0,0,.17.49,1.32,1.32,0,0,0,.54.37l1.24.36a20.91,20.91,0,0,1,2.09.65,2,2,0,0,1,1.26,2,2.39,2.39,0,0,1-.41,1.32,2.73,2.73,0,0,1-1.19,1,4.24,4.24,0,0,1-1.75.34,3.86,3.86,0,0,1-2.46-.67A3.07,3.07,0,0,1,437.37,153.76Z"/><path d="M449,155l.2,1.24a5.37,5.37,0,0,1-1.06.12,2.43,2.43,0,0,1-1.19-.24,1.3,1.3,0,0,1-.59-.64,4.86,4.86,0,0,1-.17-1.66V149h-1v-1.09h1v-2.06l1.39-.84v2.9H449V149h-1.42v4.85a2.45,2.45,0,0,0,.08.78.62.62,0,0,0,.24.27.9.9,0,0,0,.48.1A5.81,5.81,0,0,0,449,155Z"/></g></g><path id="17646979-873f-4fa8-a51e-1e7bfbd4a8db" data-name="path2370" d="M385.1,484.41a15.42,15.42,0,1,1-14.72-15.69,15.28,15.28,0,0,1,14.72,15.69" fill="none" stroke="#000" stroke-linecap="square" stroke-linejoin="bevel"/><path id="e4fcdcd3-21bd-4aac-bdfb-cd27490bc06f" data-name="path2327" d="M432.61,469.93a15.42,15.42,0,1,1-14.72-15.69,15.28,15.28,0,0,1,14.72,15.69" fill="none" stroke="#000" stroke-linecap="square" stroke-linejoin="bevel"/><path id="761efd32-f798-4a41-b94c-1a7ae43c0901" data-name="path2329" d="M229.21,552.89a15.42,15.42,0,1,1-14.72-15.69,15.27,15.27,0,0,1,14.72,15.69" fill="none" stroke="#000" stroke-linecap="square" stroke-linejoin="bevel"/><path id="17bc0e0d-2419-45dd-92bb-8cd86eb72a33" data-name="path2331" d="M259.77,648.22a15.42,15.42,0,1,1-14.71-15.69,15.26,15.26,0,0,1,14.71,15.69" fill="none" stroke="#000" stroke-linecap="square" stroke-linejoin="bevel"/><path id="d4557704-465d-4b69-906a-3e075375ba85" data-name="path2333" d="M162.62,635.85a15.42,15.42,0,1,1-14.71-15.69,15.27,15.27,0,0,1,14.71,15.69" fill="none" stroke="#000" stroke-linecap="square" stroke-linejoin="bevel"/><path id="3e49ac67-e3ca-4c06-8e02-6b669666981d" data-name="path2335" d="M33.82,538a15.27,15.27,0,0,1-16.09,14.35,15,15,0,1,1,1.37-30A15.18,15.18,0,0,1,33.82,538" fill="none" stroke="#000" stroke-linecap="square" stroke-linejoin="bevel"/><path id="5e990cb4-9626-4025-8600-ef540e499490" data-name="path2337" d="M99,479.39A15.42,15.42,0,1,1,84.23,463.7,15.27,15.27,0,0,1,99,479.39" fill="none" stroke="#000" stroke-linecap="square" stroke-linejoin="bevel"/><path id="d2ebe09a-436a-4116-a777-cb5aa9d7b707" data-name="path2339" d="M34.18,411.35A15.26,15.26,0,0,1,18.1,425.7a15,15,0,1,1,1.37-30,15.18,15.18,0,0,1,14.71,15.68" fill="none" stroke="#000" stroke-linecap="square" stroke-linejoin="bevel"/><path id="b4d25068-1d5e-463a-830b-db3b5bd76fed" data-name="path2341" d="M188.46,401.16a15.42,15.42,0,1,1-14.72-15.69,15.27,15.27,0,0,1,14.72,15.69" fill="none" stroke="#000" stroke-linecap="square" stroke-linejoin="bevel"/><path id="e73d1922-2fe2-420d-9444-d40b9738db6e" data-name="path2343" d="M162.62,324a15.42,15.42,0,1,1-14.71-15.68A15.26,15.26,0,0,1,162.62,324" fill="none" stroke="#000" stroke-linecap="square" stroke-linejoin="bevel"/><path id="f9a542b5-6535-4229-a088-ed65ee3f6660" data-name="path2345" d="M319.81,249.07a15.42,15.42,0,1,1-14.72-15.69,15.27,15.27,0,0,1,14.72,15.69" fill="none" stroke="#000" stroke-linecap="square" stroke-linejoin="bevel"/><path id="f96e2cbf-1dd4-471a-9350-5d329a4e107c" data-name="path2347" d="M305.26,208.68A15.42,15.42,0,1,1,290.54,193a15.28,15.28,0,0,1,14.72,15.69" fill="none" stroke="#000" stroke-linecap="square" stroke-linejoin="bevel"/><path id="f0e75694-e68d-47a3-bc62-ec465826bbce" data-name="path2349" d="M465,16.2a15.42,15.42,0,0,1-30.81-1.34A15.42,15.42,0,0,1,465,16.2" fill="none" stroke="#000" stroke-linecap="square" stroke-linejoin="bevel"/><path id="6d54105a-0261-4719-81fb-9d93e80f5f35" data-name="path2351" d="M551.59,111.89a15.42,15.42,0,1,1-14.72-15.68,15.27,15.27,0,0,1,14.72,15.68" fill="none" stroke="#000" stroke-linecap="square" stroke-linejoin="bevel"/><path id="7a090b99-d102-4ff7-b743-66575ad8b451" data-name="path2353" d="M449.71,181A15.42,15.42,0,1,1,435,165.34,15.28,15.28,0,0,1,449.71,181" fill="none" stroke="#000" stroke-linecap="square" stroke-linejoin="bevel"/><path id="48258182-2a9f-4b01-95d3-33ac186dd899" data-name="path2355" d="M546.86,201a15.42,15.42,0,1,1-14.72-15.69A15.28,15.28,0,0,1,546.86,201" fill="none" stroke="#000" stroke-linecap="square" stroke-linejoin="bevel"/><g id="08d0d283-22f3-45e4-8e91-50e24fcbb0b9" data-name="text2416" style="isolation:isolate"><g style="isolation:isolate"><path d="M417.94,476.64h-1.76v-11.2a8.92,8.92,0,0,1-1.67,1.21,12.92,12.92,0,0,1-1.84.91v-1.7a10.38,10.38,0,0,0,2.57-1.68,6.67,6.67,0,0,0,1.57-1.92h1.13Z"/></g></g><g id="367459a6-4cb0-46f9-b2fa-9738635a8f03" data-name="text2359" style="isolation:isolate"><g style="isolation:isolate"><path d="M373.7,488.3V490h-9.47a3.17,3.17,0,0,1,.21-1.22,6.4,6.4,0,0,1,1.15-1.9,18.59,18.59,0,0,1,2.3-2.17,20,20,0,0,0,3.16-3,3.62,3.62,0,0,0,.82-2.12,2.35,2.35,0,0,0-.75-1.76,2.7,2.7,0,0,0-1.95-.72,2.75,2.75,0,0,0-2,.77,2.86,2.86,0,0,0-.77,2.1l-1.81-.18a4.44,4.44,0,0,1,1.4-3.08,4.75,4.75,0,0,1,3.25-1.06,4.53,4.53,0,0,1,3.26,1.14,3.73,3.73,0,0,1,1.21,2.83,4.17,4.17,0,0,1-.36,1.69,6.37,6.37,0,0,1-1.16,1.75,30.27,30.27,0,0,1-2.71,2.52c-1.06.89-1.73,1.49-2,1.8a6.23,6.23,0,0,0-.75.95Z"/></g></g><g id="626b5142-59dd-4bf5-93b7-59034df04074" data-name="text2363" style="isolation:isolate"><g style="isolation:isolate"><path d="M239.67,650.68l1.75-.24a3.84,3.84,0,0,0,1,2.15,2.56,2.56,0,0,0,1.78.66,2.81,2.81,0,0,0,2.09-.86,2.88,2.88,0,0,0,.85-2.12,2.7,2.7,0,0,0-2.8-2.79,5.15,5.15,0,0,0-1.24.2l.2-1.55a1.52,1.52,0,0,0,.28,0,3.61,3.61,0,0,0,2-.58,2,2,0,0,0,.9-1.81,2.16,2.16,0,0,0-.65-1.6,2.34,2.34,0,0,0-1.69-.63,2.37,2.37,0,0,0-1.71.64,3.2,3.2,0,0,0-.88,1.93l-1.76-.31a4.51,4.51,0,0,1,1.47-2.74,4.2,4.2,0,0,1,2.84-1,4.77,4.77,0,0,1,2.16.5,3.65,3.65,0,0,1,1.5,1.38,3.48,3.48,0,0,1,.53,1.84,3,3,0,0,1-.5,1.69,1.31,1.31,0,1,0,.5,2.43,3.67,3.67,0,0,1,.7,2.31,4.24,4.24,0,0,1-1.37,3.18,4.83,4.83,0,0,1-3.45,1.3,4.48,4.48,0,0,1-3.13-1.12A4.32,4.32,0,0,1,239.67,650.68Z"/></g></g><g id="7bc59d0b-0adb-461a-92b8-91aee7564a0f" data-name="text2367" style="isolation:isolate"><g style="isolation:isolate"><path d="M214.73,558.4V555h-6.21v-1.61l6.53-9.28h1.43v9.28h1.94V555h-1.94v3.43Zm0-5V546.9l-4.49,6.46Z"/></g></g><g id="37622cb5-3835-4b8d-a8c8-c946ea2d66fc" data-name="text2371" style="isolation:isolate"><g style="isolation:isolate"><path d="M142.84,637.94l1.85-.15a3.31,3.31,0,0,0,.95,2,2.6,2.6,0,0,0,1.8.68,2.81,2.81,0,0,0,2.15-1,3.57,3.57,0,0,0,.88-2.54,3.27,3.27,0,0,0-.84-2.37,3,3,0,0,0-2.22-.87,3.06,3.06,0,0,0-1.53.39,2.87,2.87,0,0,0-1.07,1l-1.65-.22,1.38-7.35h7.12v1.68H146l-.77,3.85a4.65,4.65,0,0,1,2.7-.9,4.28,4.28,0,0,1,3.17,1.3,4.52,4.52,0,0,1,1.28,3.34,5.21,5.21,0,0,1-1.13,3.36,4.54,4.54,0,0,1-3.76,1.74,4.65,4.65,0,0,1-3.19-1.1A4.28,4.28,0,0,1,142.84,637.94Z"/></g></g><g id="a232b519-ea95-4080-9d53-4e0e514a42ac" data-name="text2375" style="isolation:isolate"><g style="isolation:isolate"><path d="M23.16,533.37l-1.75.13a3.39,3.39,0,0,0-.66-1.5,2.34,2.34,0,0,0-1.76-.75,2.4,2.4,0,0,0-1.48.47,3.93,3.93,0,0,0-1.3,1.76,9.19,9.19,0,0,0-.5,3.32,4,4,0,0,1,1.55-1.44,4.19,4.19,0,0,1,1.92-.47,4,4,0,0,1,3,1.29,4.68,4.68,0,0,1,1.23,3.35,5.44,5.44,0,0,1-.58,2.5,4.25,4.25,0,0,1-1.59,1.78,4.38,4.38,0,0,1-2.31.61,4.51,4.51,0,0,1-3.58-1.61Q14,541.19,14,537.48q0-4.15,1.53-6a4.44,4.44,0,0,1,3.61-1.64,3.83,3.83,0,0,1,4.06,3.57ZM16,539.54a4.09,4.09,0,0,0,.39,1.74,2.79,2.79,0,0,0,1.08,1.26,2.67,2.67,0,0,0,1.45.44,2.5,2.5,0,0,0,1.92-.9,3.55,3.55,0,0,0,.8-2.44,3.35,3.35,0,0,0-.79-2.34,2.62,2.62,0,0,0-2-.86,2.71,2.71,0,0,0-2,.86A3.08,3.08,0,0,0,16,539.54Z"/></g></g><g id="f26bc538-cfc8-4717-96ea-c6d7f0afa837" data-name="text2379" style="isolation:isolate"><g style="isolation:isolate"><path d="M79.29,473.16v-1.69h9.26v1.36a19.76,19.76,0,0,0-2.71,3.87,23.92,23.92,0,0,0-2.07,5,18.7,18.7,0,0,0-.68,3.94h-1.8a17.62,17.62,0,0,1,.66-4.08,21.76,21.76,0,0,1,1.82-4.62,19.64,19.64,0,0,1,2.53-3.74Z"/></g></g><g id="ab3b324a-eafd-43a0-a670-60b7cc72a8dd" data-name="text2383" style="isolation:isolate"><g style="isolation:isolate"><path d="M16.74,410.16A3.29,3.29,0,0,1,15.12,409a3,3,0,0,1-.53-1.77,3.47,3.47,0,0,1,1.13-2.63,4.16,4.16,0,0,1,3-1.06,4.19,4.19,0,0,1,3,1.08,3.51,3.51,0,0,1,1.15,2.66,2.91,2.91,0,0,1-.53,1.73,3.26,3.26,0,0,1-1.58,1.14,3.64,3.64,0,0,1,2.69,3.67,4.12,4.12,0,0,1-1.3,3.09,4.71,4.71,0,0,1-3.41,1.25,4.68,4.68,0,0,1-3.42-1.26,4.17,4.17,0,0,1-1.3-3.13,3.74,3.74,0,0,1,.71-2.34A3.48,3.48,0,0,1,16.74,410.16Zm-.91,3.63a3.17,3.17,0,0,0,.35,1.46,2.51,2.51,0,0,0,1.06,1.08,3.06,3.06,0,0,0,1.51.39,2.83,2.83,0,0,0,2.08-.81,2.77,2.77,0,0,0,.83-2.06,2.83,2.83,0,0,0-.85-2.1,2.86,2.86,0,0,0-2.11-.83,2.77,2.77,0,0,0-2.06.82A2.8,2.8,0,0,0,15.83,413.79Zm.56-6.61a2.23,2.23,0,0,0,.66,1.66,2.3,2.3,0,0,0,1.7.64,2.25,2.25,0,0,0,1.66-.64,2.11,2.11,0,0,0,.65-1.56,2.18,2.18,0,0,0-.67-1.63,2.28,2.28,0,0,0-1.66-.66,2.3,2.3,0,0,0-1.67.65A2,2,0,0,0,16.39,407.18Z"/></g></g><g id="679d7f98-c9b6-4521-ab63-86c52f8bdfdc" data-name="text2387" style="isolation:isolate"><g style="isolation:isolate"><path d="M142.74,326.56l1.69-.16a3,3,0,0,0,.82,1.73,2.26,2.26,0,0,0,1.56.54,2.76,2.76,0,0,0,1.42-.37,3.08,3.08,0,0,0,1-1,5.64,5.64,0,0,0,.65-1.67,8.62,8.62,0,0,0,.27-2.15c0-.08,0-.19,0-.35a4.12,4.12,0,0,1-1.45,1.36,3.84,3.84,0,0,1-2,.52,4,4,0,0,1-3-1.29,4.69,4.69,0,0,1-1.23-3.39,4.86,4.86,0,0,1,1.28-3.51,4.28,4.28,0,0,1,3.22-1.33,4.59,4.59,0,0,1,2.55.75,4.7,4.7,0,0,1,1.76,2.15,10.58,10.58,0,0,1,.6,4,13.26,13.26,0,0,1-.59,4.37,5.09,5.09,0,0,1-1.78,2.47,4.54,4.54,0,0,1-2.75.85,3.78,3.78,0,0,1-4-3.55Zm7.2-6.32a3.42,3.42,0,0,0-.81-2.4,2.48,2.48,0,0,0-1.93-.89,2.7,2.7,0,0,0-2,.95,3.6,3.6,0,0,0-.86,2.48,3.07,3.07,0,0,0,.82,2.23,2.72,2.72,0,0,0,2,.85,2.59,2.59,0,0,0,2-.85A3.34,3.34,0,0,0,149.94,320.24Z"/></g></g><g id="a03a8669-f06f-4441-b129-c6e83ac28a1e" data-name="text2391" style="isolation:isolate"><g style="isolation:isolate"><path d="M168.75,407.37H167v-11.2a9.66,9.66,0,0,1-1.66,1.21,13,13,0,0,1-1.86.91v-1.7a10.54,10.54,0,0,0,2.58-1.68,6.67,6.67,0,0,0,1.57-1.92h1.13Z"/><path d="M173.25,400.31a13.08,13.08,0,0,1,.52-4.09,5.1,5.1,0,0,1,1.56-2.39,4,4,0,0,1,2.59-.84,4.21,4.21,0,0,1,2,.47,3.84,3.84,0,0,1,1.44,1.34,7.23,7.23,0,0,1,.88,2.12,13.9,13.9,0,0,1,.33,3.39,13.34,13.34,0,0,1-.52,4.07,5.14,5.14,0,0,1-1.55,2.39,4,4,0,0,1-2.6.84,3.91,3.91,0,0,1-3.25-1.48Q173.25,404.35,173.25,400.31Zm1.81,0c0,2.35.27,3.91.82,4.69a2.35,2.35,0,0,0,4.07,0c.55-.79.83-2.35.83-4.69s-.28-3.93-.83-4.7a2.45,2.45,0,0,0-2-1.16,2.27,2.27,0,0,0-1.94,1C175.36,396.35,175.06,398,175.06,400.31Z"/></g></g><g id="a26b584e-aa45-4ec8-889d-34e63954416b" data-name="text2395" style="isolation:isolate"><g style="isolation:isolate"><path d="M300.46,255.28h-1.75v-11.2a9.78,9.78,0,0,1-1.67,1.21,13,13,0,0,1-1.85.91v-1.7a11.26,11.26,0,0,0,2.58-1.68,6.79,6.79,0,0,0,1.56-1.92h1.13Z"/><path d="M310.1,255.28h-1.76v-11.2a9.28,9.28,0,0,1-1.66,1.21,13,13,0,0,1-1.85.91v-1.7a11.26,11.26,0,0,0,2.58-1.68A6.79,6.79,0,0,0,309,240.9h1.13Z"/></g></g><g id="5db59334-665c-4bf8-8083-4e5fe8fda60e" data-name="text2399" style="isolation:isolate"><g style="isolation:isolate"><path d="M285.8,213.71h-1.75v-11.2a8.81,8.81,0,0,1-1.67,1.21,11.14,11.14,0,0,1-1.85.91v-1.7a10.63,10.63,0,0,0,2.58-1.68,6.63,6.63,0,0,0,1.56-1.91h1.13Z"/><path d="M299.54,212v1.69h-9.46a3.17,3.17,0,0,1,.21-1.22,6.4,6.4,0,0,1,1.15-1.9,17.89,17.89,0,0,1,2.3-2.17,20,20,0,0,0,3.16-3,3.69,3.69,0,0,0,.82-2.12,2.35,2.35,0,0,0-.75-1.76,2.7,2.7,0,0,0-2-.72,2.75,2.75,0,0,0-2,.77,2.87,2.87,0,0,0-.77,2.11l-1.81-.19a4.44,4.44,0,0,1,1.4-3.08,4.75,4.75,0,0,1,3.25-1.06,4.54,4.54,0,0,1,3.26,1.14,3.76,3.76,0,0,1,1.2,2.83,4.16,4.16,0,0,1-.35,1.69,6.37,6.37,0,0,1-1.16,1.75,30.27,30.27,0,0,1-2.71,2.52q-1.59,1.33-2,1.8a6.65,6.65,0,0,0-.74,1Z"/></g></g><g id="6d47cb48-c165-4203-b7b9-330248b71193" data-name="text2403" style="isolation:isolate"><g style="isolation:isolate"><path d="M430,187.24h-1.76V176a9.4,9.4,0,0,1-1.67,1.21,11.43,11.43,0,0,1-1.85.9v-1.69a10.84,10.84,0,0,0,2.58-1.68,6.45,6.45,0,0,0,1.56-1.92H430Z"/><path d="M434.5,183.49l1.84-.16a3.35,3.35,0,0,0,1,2,2.57,2.57,0,0,0,1.8.68,2.82,2.82,0,0,0,2.15-1,3.65,3.65,0,0,0,.88-2.54,3.27,3.27,0,0,0-.85-2.37,2.94,2.94,0,0,0-2.21-.87,3.1,3.1,0,0,0-1.53.38,3,3,0,0,0-1.08,1l-1.65-.21,1.39-7.35h7.12v1.68H437.6l-.77,3.84a4.66,4.66,0,0,1,2.71-.9,4.3,4.3,0,0,1,3.16,1.3,4.55,4.55,0,0,1,1.29,3.34,5.23,5.23,0,0,1-1.13,3.36,4.54,4.54,0,0,1-3.76,1.74,4.63,4.63,0,0,1-3.19-1.09A4.3,4.3,0,0,1,434.5,183.49Z"/></g></g><g id="e9866b7f-a89e-4649-8704-a3d3ec7861d5" data-name="text2407" style="isolation:isolate"><g style="isolation:isolate"><path d="M527.87,206.88h-1.75v-11.2a8.81,8.81,0,0,1-1.67,1.21,11.14,11.14,0,0,1-1.85.91v-1.7a10.63,10.63,0,0,0,2.58-1.68,6.63,6.63,0,0,0,1.56-1.91h1.13Z"/><path d="M541.5,196.07l-1.75.14a3.28,3.28,0,0,0-.67-1.5,2.32,2.32,0,0,0-1.75-.76,2.46,2.46,0,0,0-1.48.47,4.11,4.11,0,0,0-1.31,1.77,9.39,9.39,0,0,0-.5,3.31,4.16,4.16,0,0,1,1.56-1.43,4.07,4.07,0,0,1,1.92-.47,4,4,0,0,1,3,1.29,4.62,4.62,0,0,1,1.24,3.35,5.47,5.47,0,0,1-.58,2.5,4.24,4.24,0,0,1-1.6,1.77,4.33,4.33,0,0,1-2.3.62,4.51,4.51,0,0,1-3.59-1.62c-.92-1.07-1.38-2.85-1.38-5.32q0-4.16,1.53-6a4.41,4.41,0,0,1,3.6-1.64,3.85,3.85,0,0,1,4.07,3.56Zm-7.18,6.18a4.15,4.15,0,0,0,.38,1.73,2.89,2.89,0,0,0,1.08,1.27,2.72,2.72,0,0,0,1.46.43,2.47,2.47,0,0,0,1.91-.9,3.49,3.49,0,0,0,.8-2.44,3.3,3.3,0,0,0-.79-2.34,2.63,2.63,0,0,0-2-.85,2.74,2.74,0,0,0-2,.85A3.11,3.11,0,0,0,534.32,202.25Z"/></g></g><g id="c190e27c-a466-4937-95b9-ac455a12fd10" data-name="text2411" style="isolation:isolate"><g style="isolation:isolate"><path d="M445.64,21.68h-1.76V10.48a8.82,8.82,0,0,1-1.66,1.21,11.14,11.14,0,0,1-1.85.91V10.9A10.63,10.63,0,0,0,443,9.22a6.76,6.76,0,0,0,1.56-1.91h1.13Z"/><path d="M450.15,17.9l1.76-.23a3.91,3.91,0,0,0,1,2.15,2.56,2.56,0,0,0,1.77.66,2.92,2.92,0,0,0,3-3,2.67,2.67,0,0,0-.79-2,2.72,2.72,0,0,0-2-.79,5.6,5.6,0,0,0-1.24.19l.2-1.54.28,0a3.61,3.61,0,0,0,2-.58A2,2,0,0,0,457,11a2.11,2.11,0,0,0-.66-1.6,2.28,2.28,0,0,0-1.69-.64,2.37,2.37,0,0,0-1.7.65,3.2,3.2,0,0,0-.88,1.93L450.33,11a4.5,4.5,0,0,1,1.46-2.74,4.25,4.25,0,0,1,2.85-1,4.69,4.69,0,0,1,2.15.5,3.6,3.6,0,0,1,1.51,1.37,3.54,3.54,0,0,1,.53,1.85,3,3,0,0,1-.5,1.69,3.4,3.4,0,0,1-1.48,1.21,3.33,3.33,0,0,1,2,1.21,3.77,3.77,0,0,1,.7,2.31,4.24,4.24,0,0,1-1.37,3.18,4.8,4.8,0,0,1-3.46,1.31,4.51,4.51,0,0,1-3.13-1.13A4.36,4.36,0,0,1,450.15,17.9Z"/></g></g><g id="cb8612e7-9654-4bbc-9704-160aae2147cc" data-name="text2415" style="isolation:isolate"><g style="isolation:isolate"><path d="M532.24,117.38h-1.76V106.17a9.16,9.16,0,0,1-1.66,1.22,12.29,12.29,0,0,1-1.85.9v-1.7a10.64,10.64,0,0,0,2.57-1.67,6.67,6.67,0,0,0,1.57-1.92h1.13Z"/><path d="M542.38,117.38V114h-6.21v-1.61l6.53-9.28h1.43v9.28h1.94V114h-1.94v3.43Zm0-5v-6.46l-4.49,6.46Z"/></g></g><g id="3fc75f0f-dfa6-4514-bc3f-6b6efd930837" data-name="g12355"><rect id="795c8ff8-c7ad-4678-a03a-831b93a6e30b" data-name="rect9376" x="419.57" y="350.34" width="4.24" height="4.42" transform="translate(-72.39 593.37) rotate(-65.88)"/><rect id="ae9d609a-32a0-42ad-af4f-4d3e7ce13628" data-name="rect10347" x="435.37" y="357.4" width="4.24" height="4.42" transform="translate(-69.49 611.97) rotate(-65.88)"/><rect id="8bea48bc-f1b0-455d-9be4-2816dd7d34be" data-name="rect10349" x="411.64" y="346.66" width="4.24" height="4.42" transform="translate(-73.72 583.96) rotate(-65.88)"/><rect id="d59df11d-1710-4068-a718-c835bda65a75" data-name="rect10351" x="423.48" y="352.12" width="4.24" height="4.42" transform="translate(-71.71 598) rotate(-65.88)" fill="#fff"/><rect id="f5f89a7f-1be3-4e10-b908-31be166576e9" data-name="rect12293" x="415.62" y="348.55" width="4.24" height="4.42" transform="translate(-73.1 588.7) rotate(-65.88)" fill="#fff"/><rect id="c5b8c682-655e-4b22-9f63-32c3f59e97f2" data-name="rect12295" x="431.49" y="355.66" width="4.24" height="4.42" transform="translate(-70.2 607.4) rotate(-65.88)" fill="#fff"/><rect id="97b0e63a-3d87-4760-87bf-183fab23a93d" data-name="rect12297" x="439.43" y="359.21" width="4.24" height="4.42" transform="translate(-68.75 616.75) rotate(-65.88)" fill="#fff"/><rect id="25ba4a83-b3ca-49ea-939a-dbb823812fba" data-name="rect12299" x="413.32" y="342.76" width="4.24" height="4.42" transform="translate(-69.17 583.19) rotate(-65.88)" fill="#fff"/><rect id="604af685-7dc1-469a-afa6-71a85959b751" data-name="rect12301" x="443.45" y="361.05" width="4.24" height="4.42" transform="translate(-68.04 621.5) rotate(-65.88)"/><rect id="7630dfe2-a6af-4967-b79b-5f753809126b" data-name="rect12303" x="427.49" y="353.89" width="4.24" height="4.42" transform="translate(-70.95 602.7) rotate(-65.88)"/><rect id="c491ff7a-aa65-4d91-ad06-16ae44415d4d" data-name="rect12321" x="425.23" y="348.34" width="4.24" height="4.42" transform="translate(-67.22 597.36) rotate(-65.88)"/><rect id="f1fa9378-af4d-4e40-a31c-dc97ba4c5fd9" data-name="rect12323" x="441.03" y="355.4" width="4.24" height="4.42" transform="translate(-64.32 615.96) rotate(-65.88)"/><rect id="203f52a8-a108-4a6d-9067-9e0728d68533" data-name="rect12325" x="417.3" y="344.66" width="4.24" height="4.42" transform="translate(-68.56 587.95) rotate(-65.88)"/><rect id="9292374d-8270-4619-8b34-00ee53b857f7" data-name="rect12327" x="429.14" y="350.13" width="4.24" height="4.42" transform="translate(-66.54 601.99) rotate(-65.88)" fill="#fff"/><rect id="ccedc14a-bcd6-4476-9a01-2819ccc14b7a" data-name="rect12329" x="421.27" y="346.55" width="4.24" height="4.42" transform="translate(-67.93 592.69) rotate(-65.88)" fill="#fff"/><rect id="46797689-0e64-41be-b1d8-40dec6ff5537" data-name="rect12331" x="437.15" y="353.66" width="4.24" height="4.42" transform="translate(-65.03 611.38) rotate(-65.88)" fill="#fff"/><rect id="6e9d960c-ab24-4549-b58e-1ab605d2667d" data-name="rect12333" x="445.09" y="357.22" width="4.24" height="4.42" transform="translate(-63.58 620.73) rotate(-65.88)" fill="#fff"/><rect id="3751954d-de67-4366-ad38-0a0d2191e569" data-name="rect12335" x="433.15" y="351.89" width="4.24" height="4.42" transform="translate(-65.78 606.68) rotate(-65.88)"/><rect id="ac271dc0-9da9-4794-a218-8c047ccca0b0" data-name="rect12337" x="422.91" y="342.76" width="4.24" height="4.42" transform="translate(-63.5 591.94) rotate(-65.88)"/><rect id="c5a9bd94-f7cb-4918-86c9-efb4625487c5" data-name="rect12339" x="438.71" y="349.83" width="4.24" height="4.42" transform="translate(-60.61 610.54) rotate(-65.88)"/><rect id="9eb8b7fb-83a6-4d29-b0a2-511928a388c1" data-name="rect12341" x="414.98" y="339.09" width="4.24" height="4.42" transform="translate(-64.84 582.53) rotate(-65.88)"/><rect id="3b2763c3-3208-4c05-8aee-5eb0b19264b4" data-name="rect12343" x="426.82" y="344.55" width="4.24" height="4.42" transform="translate(-62.82 596.57) rotate(-65.88)" fill="#fff"/><rect id="dbdd756c-451f-4038-9662-1ac220081862" data-name="rect12345" x="418.95" y="340.97" width="4.24" height="4.42" transform="translate(-64.21 587.27) rotate(-65.88)" fill="#fff"/><rect id="bf93f4b1-71bf-4b33-996f-abb9dd9e415a" data-name="rect12347" x="434.83" y="348.08" width="4.24" height="4.42" transform="translate(-61.31 605.97) rotate(-65.88)" fill="#fff"/><rect id="54cbf659-480a-4fb0-844e-f1221d336927" data-name="rect12349" x="442.77" y="351.64" width="4.24" height="4.42" transform="translate(-59.86 615.32) rotate(-65.88)" fill="#fff"/><rect id="82925c08-2549-4c0f-9308-a11b96d7e8e0" data-name="rect12351" x="430.83" y="346.32" width="4.24" height="4.42" transform="translate(-62.06 601.27) rotate(-65.88)"/><rect id="6f9c6e7a-5470-4437-8e9a-57d5569b0380" data-name="rect12353" x="446.84" y="353.36" width="4.24" height="4.42" transform="translate(-59.02 620.04) rotate(-65.88)"/></g><path id="09495c75-0a6c-444d-b3d7-eca6ad14a08a" data-name="path2302" d="M470.89,333.71l-12.42-6.48-4.89,27.17Z" fill="red" stroke="#fff" stroke-opacity="0" stroke-width="0.97"/><path id="304e2aad-76f3-491d-aee3-3ff690e4eb8c" data-name="path2574" d="M249.43,333.89l5.2,13,21.42-17.43Z" fill="red" stroke="#fff" stroke-opacity="0" stroke-width="0.97"/><path id="531ce214-2cb1-4e72-8a50-7e4171ebaa03" data-name="path17946" d="M391.19,450.31a4.2,4.2,0,1,1-4-4.33,4.2,4.2,0,0,1,4,4.33" fill="#fff" stroke="#000" stroke-linecap="square" stroke-linejoin="bevel"/><path id="a11ab89a-e660-4122-a078-65a5de002044" data-name="path2577" d="M358.28,452.42a4.2,4.2,0,1,1-4-4.33,4.19,4.19,0,0,1,4,4.33" fill="#fff" stroke="#000" stroke-linecap="square" stroke-linejoin="bevel"/><path id="1e154812-7f8f-44a8-9522-51b9827b0d57" data-name="path2579" d="M247.57,618.36a4.2,4.2,0,1,1-4-4.33,4.18,4.18,0,0,1,4,4.33" fill="#fff" stroke="#000" stroke-linecap="square" stroke-linejoin="bevel"/><path id="242faaa9-3e67-499e-be4e-3bf19e7f0d3c" data-name="path2581" d="M219.13,583.58a4.2,4.2,0,1,1-4-4.33,4.19,4.19,0,0,1,4,4.33" fill="#fff" stroke="#000" stroke-linecap="square" stroke-linejoin="bevel"/><path id="323880de-80b4-4c06-a249-0a227a3c830e" data-name="path2583" d="M153.56,605.44a4.2,4.2,0,1,1-4-4.33,4.2,4.2,0,0,1,4,4.33" fill="#fff" stroke="#000" stroke-linecap="square" stroke-linejoin="bevel"/><path id="da5db2cb-9119-4384-ae44-f5f7264af930" data-name="path2585" d="M50.61,519.64a4.2,4.2,0,1,1-4-4.33,4.18,4.18,0,0,1,4,4.33" fill="#fff" stroke="#000" stroke-linecap="square" stroke-linejoin="bevel"/><path id="c1b3b42d-b685-42ee-97cf-1bd08cd0aaac" data-name="path2587" d="M59.07,486.74a4.2,4.2,0,1,1-4-4.33,4.19,4.19,0,0,1,4,4.33" fill="#fff" stroke="#000" stroke-linecap="square" stroke-linejoin="bevel"/><path id="a1ec2dde-f5bc-409f-8e73-0661c5dbc422" data-name="path2589" d="M51.55,426.57a4.2,4.2,0,1,1-4-4.33,4.19,4.19,0,0,1,4,4.33" fill="#fff" stroke="#000" stroke-linecap="square" stroke-linejoin="bevel"/><path id="edaad725-352c-4e4c-bca5-3b5bed95df71" data-name="path2591" d="M151.91,355.82a4.2,4.2,0,1,1-4-4.33,4.19,4.19,0,0,1,4,4.33" fill="#fff" stroke="#000" stroke-linecap="square" stroke-linejoin="bevel"/><path id="d470729a-b41d-4fe9-8a04-6145c548ff59" data-name="path2593" d="M171.18,371.8a4.2,4.2,0,1,1-4-4.33,4.18,4.18,0,0,1,4,4.33" fill="#fff" stroke="#000" stroke-linecap="square" stroke-linejoin="bevel"/><path id="341fd1e5-7307-48fa-8c28-04f2e589c168" data-name="path2595" d="M335.25,245.11a4.2,4.2,0,1,1-4-4.33,4.19,4.19,0,0,1,4,4.33" fill="#fff" stroke="#000" stroke-linecap="square" stroke-linejoin="bevel"/><path id="5a6ef196-3777-411e-a243-8204e327c5c3" data-name="path2597" d="M324.2,208.44a4.2,4.2,0,1,1-4-4.33,4.18,4.18,0,0,1,4,4.33" fill="#fff" stroke="#000" stroke-linecap="square" stroke-linejoin="bevel"/><path id="c11bdb00-017b-43c4-877e-d11d6a341fe2" data-name="path2599" d="M365.33,108.32a4.2,4.2,0,1,1-4-4.33,4.2,4.2,0,0,1,4,4.33" fill="#fff" stroke="#000" stroke-linecap="square" stroke-linejoin="bevel"/><path id="a873e8d0-a84d-444e-81d5-23feafb89b13" data-name="path2601" d="M453.47,46a4.2,4.2,0,1,1-4-4.33,4.19,4.19,0,0,1,4,4.33" fill="#fff" stroke="#000" stroke-linecap="square" stroke-linejoin="bevel"/><path id="4adf93f2-0b7b-4f53-85d7-2af1b65dee06" data-name="path2603" d="M510.59,111.61a4.2,4.2,0,1,1-4-4.33,4.2,4.2,0,0,1,4,4.33" fill="#fff" stroke="#000" stroke-linecap="square" stroke-linejoin="bevel"/><path id="984c75f0-154b-458c-a797-5540e3548659" data-name="path2605" d="M467.34,177.42a4.2,4.2,0,1,1-4-4.33,4.19,4.19,0,0,1,4,4.33" fill="#fff" stroke="#000" stroke-linecap="square" stroke-linejoin="bevel"/><path id="ab440bae-2940-40f1-bd9b-a6c959970cec" data-name="path2607" d="M506.36,202.1a4.2,4.2,0,1,1-4-4.33,4.19,4.19,0,0,1,4,4.33" fill="#fff" stroke="#000" stroke-linecap="square" stroke-linejoin="bevel"/></g></svg>