<?xml version="1.0" encoding="UTF-8"?>
<svg width="213.06mm" height="140.92mm" version="1.1" viewBox="0 0 213.06 140.92" xmlns="http://www.w3.org/2000/svg" xmlns:cc="http://creativecommons.org/ns#" xmlns:dc="http://purl.org/dc/elements/1.1/" xmlns:rdf="http://www.w3.org/1999/02/22-rdf-syntax-ns#" xmlns:xlink="http://www.w3.org/1999/xlink">
 <defs>
  <pattern id="pattern3054" patternTransform="matrix(1.7749 0 0 1.7749 133.13 144.92)" xlink:href="#Checkerboard"/>
  <pattern id="Checkerboard" width="2" height="2" patternTransform="translate(0) scale(10)" patternUnits="userSpaceOnUse">
   <rect width="1" height="1"/>
   <rect x="1" y="1" width="1" height="1"/>
  </pattern>
 </defs>
 <metadata>
  <rdf:RDF>
   <cc:Work rdf:about="">
    <dc:format>image/svg+xml</dc:format>
    <dc:type rdf:resource="http://purl.org/dc/dcmitype/StillImage"/>
    <dc:title/>
   </cc:Work>
  </rdf:RDF>
 </metadata>
 <g transform="translate(2.257 3.5624)">
  <path d="m172.21 11.465c0.0557 1.5369 0.16705 4.6105 0.24503 6.2587 0.078 1.6482 0.12253 1.8709 0.30076 2.283 0.17823 0.41205 0.49004 1.0134 1.1638 2.0992 0.67377 1.0858 1.7094 2.656 2.3553 3.636 0.6459 0.97999 0.90203 1.3698 1.1804 1.8765 0.27839 0.50671 0.57906 1.1303 0.82402 1.7818 0.24497 0.65147 0.43428 1.3308 0.56232 1.9655 0.12804 0.63476 0.19486 1.225 0.22268 1.7428 0.0278 0.51782 0.0167 0.96326-0.0446 1.4031-0.0613 0.43985-0.17263 0.87415-0.36195 1.3196s-0.45659 0.90198-0.76283 1.3418c-0.30624 0.43986-0.65145 0.86302-1.069 1.2973-0.41759 0.4343-0.90757 0.87974-1.4532 1.3085-0.54567 0.42874-1.147 0.84077-1.7873 1.2138-0.64032 0.37306-1.3196 0.70714-1.9711 0.98555-0.65145 0.27841-1.2751 0.50113-1.9432 0.68488-0.66815 0.18376-1.3808 0.32852-2.1715 0.45103-0.79066 0.12251-1.6593 0.22273-5.4457 0.37236-3.7864 0.14962-10.49 0.34862-22.252 0.62136-11.762 0.27274-28.582 0.61922-39.701 0.77671-11.119 0.15749-16.536 0.126-19.375 0.08665-2.8387-0.03935-3.0986-0.08659-3.3348-0.19281-0.23624-0.10622-0.44885-0.27158-0.61425-0.43691s-0.28352-0.33069-0.36237-0.9843c-0.07885-0.65361-0.11822-1.7954-0.18122-4.9098-0.063-3.1144-0.14962-8.2012-0.22047-10.942-0.07085-2.7403-0.12597-3.134-0.21651-3.5829-0.090519-0.44884-0.21651-0.9528-0.41729-1.5473-0.20078-0.59453-0.47638-1.2796-0.78346-1.9056-0.30708-0.62603-0.64568-1.193-0.98033-1.697-0.33465-0.50398-0.66537-0.94494-1.0827-1.4253-0.41733-0.48036-0.92129-1.0001-1.4922-1.4923-0.57089-0.49219-1.2087-0.95677-1.8387-1.3623-0.62996-0.40556-1.252-0.75203-1.9411-1.0907-0.68902-0.33862-1.445-0.66935-2.2757-0.96467-0.83077-0.29532-1.7363-0.55517-2.4844-0.71663-0.7481-0.16146-1.3387-0.22445-2.075-0.25203-0.73629-0.02758-1.6182-0.0197-2.3033 0.01179-0.6851 0.03149-1.1733 0.08661-1.7757 0.1811-0.60242 0.09449-1.319 0.22835-2.1459 0.4764-0.82686 0.24804-1.7639 0.61026-2.6183 1.0197-0.85442 0.40948-1.6261 0.8662-2.4136 1.4332-0.78748 0.56698-1.5907 1.2442-2.2443 1.9372s-1.1576 1.4017-1.6143 2.1262c-0.45673 0.72448-0.8662 1.4647-1.1812 2.1143-0.31498 0.64968-0.53547 1.2088-0.70476 1.8624-0.16929 0.65363-0.28741 1.4017-0.37009 1.9884-0.08268 0.58666-0.12992 1.0119-0.20041 4.6837-0.07049 3.6718-0.16423 10.59-0.25566 14.806-0.09142 4.2164-0.18051 5.7309-0.31416 6.9336-0.13365 1.2027-0.31183 2.0936-0.50115 2.8731-0.18932 0.77952-0.38977 1.4477-0.63477 2.1047-0.245 0.65702-0.53454 1.3029-0.9577 1.9488-0.42316 0.64586-0.97996 1.2917-1.5702 1.9488-0.59022 0.65704-1.2138 1.3252-2.1158 2.0268-0.90201 0.70156-2.0824 1.4365-3.0735 2.0268-0.99112 0.59022-1.7929 1.0357-2.784 1.5591-0.99113 0.52341-2.1715 1.1248-3.2629 1.6036s-2.0936 0.83521-3.2072 1.2584c-1.1136 0.42318-2.3386 0.91317-3.3743 1.4254-1.0357 0.51228-1.882 1.0468-2.695 1.5368-0.81294 0.49-1.5925 0.93544-2.1939 1.4143-0.60142 0.4789-1.0246 0.99116-1.4812 1.5925-0.4566 0.60138-0.94658 1.2918-1.3141 2.1271-0.3675 0.8353-0.61249 1.8153-1.1916 4.0982-0.57909 2.283-1.4922 5.8688-1.9469 7.7304-0.45468 1.8617-0.45093 1.999-0.42342 2.1563 0.02751 0.15729 0.078696 0.33447 0.16933 0.49391 0.090639 0.15944 0.22056 0.30117 0.41549 0.44484 0.19493 0.14366 0.45478 0.28934 0.96466 0.4645s1.2698 0.3799 2.0198 0.65554c0.75006 0.27564 1.4902 0.62211 2.7502 1.3308 1.2599 0.70874 3.0395 1.7796 5.0712 3.1341s4.3152 2.9923 6.0712 4.2522c1.756 1.2599 2.9844 2.1418 3.9294 2.7797 0.94495 0.63782 1.6064 1.0315 2.6301 1.6536 1.0237 0.62209 2.4096 1.4725 4.9531 2.9372 2.5435 1.4647 6.2444 3.5435 9.1817 5.1263 2.9372 1.5828 5.1105 2.6694 6.9296 3.5671 1.819 0.89769 3.2837 1.6064 4.5751 2.1733s2.4096 0.99217 3.7483 1.4883c1.3387 0.4961 2.8978 1.063 4.394 1.5434 1.4962 0.48033 2.9293 0.87404 4.3625 1.1732 1.4332 0.29922 2.8663 0.50395 4.2443 0.63781 1.378 0.13385 2.7009 0.19684 5.8035 0.26771 3.1026 0.0709 7.9847 0.14961 15.151 0.19685 7.1659 0.0472 16.615 0.063 32.923-4e-5 16.308-0.063 39.475-0.20475 51.062-0.28342 11.587-0.0787 11.595-0.0944 11.634-0.16137 0.0394-0.0669 0.11024-0.18506 0.17128-0.39368 0.061-0.20861 0.11221-0.50782 0.13979-0.88184 0.0276-0.37402 0.0315-0.82286 0.0649-1.2363 0.0335-0.41345 0.0965-0.79141 0.19881-1.1458 0.10236-0.3544 0.2441-0.68512 0.44493-0.96867 0.20084-0.28355 0.4607-0.51979 0.77177-0.74817 0.31108-0.22838 0.6733-0.44886 0.94494-0.64177s0.45275-0.35827 0.59053-0.53147c0.13778-0.17319 0.23226-0.35429 0.28739-0.59439 0.0551-0.24009 0.0709-0.53932 0.19592-11.987 0.12505-11.448 0.35941-34.043 0.47659-46.165 0.11718-12.122 0.11718-13.77 0.0671-14.828-0.0501-1.0579-0.15031-1.5256-0.27837-2.088-0.12807-0.56239-0.28397-1.2194-0.4844-1.8709-0.20044-0.65147-0.44543-1.2974-0.80733-2.0101s-0.84075-1.4923-1.8708-3.0124-2.6114-3.7807-4.2874-6.1305c-1.676-2.3498-3.4466-4.7886-4.9278-6.871-1.4811-2.0825-2.6727-3.8086-3.8977-5.557-1.225-1.7484-2.4834-3.519-3.3242-4.7162-0.8408-1.1971-1.264-1.8208-1.6092-2.2551s-0.61245-0.67933-0.84577-0.84201-0.43274-0.24291-0.65058-0.29489c-0.21785-0.05198-0.45408-0.075602-0.63917-0.071703-0.1851 0.0039-0.31897 0.035397-0.4549 0.11613-0.13593 0.080732-0.27373 0.21066-0.384 0.3623-0.11028 0.15164-0.19296 0.32489-0.23461 0.4855-0.0417 0.16061-0.0423 0.30843-0.0426 0.38221-3.3e-4 0.07378-2.4e-4 0.073787 0.0554 1.6107z" fill="none" stroke="#000" stroke-width="2"/>
  <rect transform="rotate(-35.566)" x="132.66" y="132.77" width="14.141" height="4.5554" fill="#fff" stroke="#000" stroke-dashoffset="8.3825" stroke-linejoin="round" stroke-width=".21085"/>
  <g shape-rendering="auto">
   <path d="m171.46 4.5764c0 1.654-1.3408 2.9948-2.9948 2.9948s-2.9948-1.3408-2.9948-2.9948 1.3408-2.9948 2.9948-2.9948 2.9948 1.3408 2.9948 2.9948z" color="#000000" color-rendering="auto" dominant-baseline="auto" fill="#fff" image-rendering="auto" solid-color="#000000" stop-color="#000000" style="font-feature-settings:normal;font-variant-alternates:normal;font-variant-caps:normal;font-variant-east-asian:normal;font-variant-ligatures:normal;font-variant-numeric:normal;font-variant-position:normal;font-variation-settings:normal;inline-size:0;isolation:auto;mix-blend-mode:normal;shape-margin:0;shape-padding:0;text-decoration-color:#000000;text-decoration-line:none;text-decoration-style:solid;text-indent:0;text-orientation:mixed;text-transform:none;white-space:normal"/>
   <path d="m168.46 1.4375c-1.7318 0-3.1387 1.4069-3.1387 3.1387s1.4069 3.1387 3.1387 3.1387c1.7318 0 3.1387-1.4069 3.1387-3.1387s-1.4069-3.1387-3.1387-3.1387zm0 0.28906c1.5762 0 2.8516 1.2734 2.8516 2.8496 0 1.5762-1.2754 2.8516-2.8516 2.8516-1.5762 0-2.8496-1.2754-2.8496-2.8516 0-1.5762 1.2734-2.8496 2.8496-2.8496z" color="#000000" color-rendering="auto" dominant-baseline="auto" image-rendering="auto" solid-color="#000000" stop-color="#000000" style="font-feature-settings:normal;font-variant-alternates:normal;font-variant-caps:normal;font-variant-east-asian:normal;font-variant-ligatures:normal;font-variant-numeric:normal;font-variant-position:normal;font-variation-settings:normal;inline-size:0;isolation:auto;mix-blend-mode:normal;shape-margin:0;shape-padding:0;text-decoration-color:#000000;text-decoration-line:none;text-decoration-style:solid;text-indent:0;text-orientation:mixed;text-transform:none;white-space:normal"/>
  </g>
  <g stroke-width=".42734" aria-label="1">
   <path d="m168.27 4.5061c0 0.11282 0 1.3789-6e-3 1.4604-0.0125 0.33219-0.0251 0.35099-0.43246 0.35099h-0.28832c-0.0501 0-0.0877 0.00627-0.0877 0.037606v0.15669c0 0.037606 0.0188 0.050141 0.0501 0.050141s0.91508-0.018803 0.97149-0.018803c0.0564 0 0.90881 0.018803 0.96521 0.018803 0.0439 0 0.0564-0.012535 0.0564-0.050141v-0.14416c0-0.031338-0.0188-0.050141-0.0627-0.050141h-0.22564c-0.4074 0-0.43247-0.043874-0.43873-0.36979 0-0.08148-6e-3 -1.4102-6e-3 -1.4854v-0.26324c0-0.80853 0.0188-1.7926 0.0188-1.849 0-0.050141-6e-3 -0.087747-0.0439-0.087747-0.0313 0-0.0564 0.018803-0.0877 0.037606l-1.2974 0.74585c-0.0439 0.025071-0.0501 0.050141-0.0376 0.075212l0.0501 0.11282c0.0125 0.025071 0.0376 0.025071 0.0627 0.018803l0.43873-0.14416c0.10028-0.031338 0.1943-0.050141 0.25071-0.050141 0.11908 0 0.14415 0.13789 0.15042 0.35099 6e-3 0.49515 0 0.78973 0 0.8712z" stroke-width=".42734"/>
  </g>
  <path d="m169.96 21.789a2.9948 2.9948 0 0 1-2.9948 2.9948 2.9948 2.9948 0 0 1-2.9948-2.9948 2.9948 2.9948 0 0 1 2.9948-2.9948 2.9948 2.9948 0 0 1 2.9948 2.9948z" fill="#fff" stroke="#000" stroke-dashoffset="8.3825" stroke-linejoin="round" stroke-width=".288"/>
  <g stroke-width=".42734" aria-label="2">
   <path d="m167.33 23.756c0.18803 0 0.30712 0.0063 0.34472 0.08775 0.0251 0.05641 0.0251 0.06268 0.0815 0.06268 0.11282 0 0.0627 0 0.094-0.06894l0.4074-0.97776c0.0251-0.03761 0-0.06268-0.0501-0.08775-0.0627-0.03134-0.0815-0.02507-0.11282 0.03134-0.13789 0.2319-0.30085 0.52648-0.72705 0.52648h-1.2723c0.27578-0.24444 0.77093-0.60796 1.1971-1.0968 0.56409-0.63303 0.77719-1.0843 0.77719-1.6171 0-0.70825-0.57036-1.1407-1.0968-1.1407-0.84614 0-1.1532 0.69571-1.2535 0.94015-0.0251 0.05641-0.0188 0.07521 0 0.08775l0.0877 0.03761c0.0313 0.0188 0.0501 0.01253 0.0752-0.03134 0.10655-0.18803 0.30712-0.6017 0.83987-0.60796 0.45127-0.0063 0.78973 0.32592 0.80853 0.88374 0.0188 0.54529-0.26951 1.0279-0.77092 1.5669-0.50142 0.53902-1.053 1.0216-1.3476 1.2974-0.0313 0.03134-0.0376 0.05014-0.0188 0.09402 0.0188 0.03761 0.0376 0.03761 0.0689 0.03761 0.0251 0 0.10028-0.0063 0.1943-0.01253 0.094-0.0063 0.20683-0.01254 0.31338-0.01254z" stroke-width=".42734"/>
  </g>
  <path d="m176.45 33.4a2.9948 2.9948 0 0 1-2.9948 2.9948 2.9948 2.9948 0 0 1-2.9948-2.9948 2.9948 2.9948 0 0 1 2.9948-2.9948 2.9948 2.9948 0 0 1 2.9948 2.9948z" fill="#fff" stroke="#000" stroke-dashoffset="8.3825" stroke-linejoin="round" stroke-width=".288"/>
  <g stroke-width=".42734" aria-label="3">
   <path d="m173.01 35.461c0.84614 0 1.5669-0.57036 1.5669-1.3789 0-0.55155-0.48888-0.99029-0.91508-1.0968 0.32592-0.20056 0.70198-0.53902 0.70198-1.078 0-0.31965-0.24444-0.82106-0.92761-0.82106-0.70825 0-1.0906 0.58289-1.1783 1.0154-0.0125 0.05641-6e-3 0.08775 6e-3 0.09402l0.11282 0.02507c0.0251 0.0063 0.0439-0.01254 0.0627-0.06268 0.13162-0.35726 0.36979-0.68318 0.8336-0.68318 0.39486 0 0.6393 0.30085 0.6393 0.70198 0 0.48261-0.41367 0.8148-0.8148 0.89001-0.0564 0.01253-0.0752 0.02507-0.0752 0.08775 0 0.08775 0 0.06894 0.11282 0.09401 0.50768 0.11908 0.90254 0.48888 0.90254 1.1219 0 0.43874-0.34472 0.85867-0.92135 0.85867-0.43873 0-0.55155-0.18803-0.58289-0.25697-0.0125-0.03134-0.0501-0.27578-0.25697-0.27578-0.10655 0-0.20683 0.10655-0.20683 0.26951 0 0.18176 0.20056 0.49514 0.94014 0.49514z" stroke-width=".42734"/>
  </g>
  <path d="m175.44 48.659a2.9948 2.9948 0 0 1-2.9948 2.9948 2.9948 2.9948 0 0 1-2.9948-2.9948 2.9948 2.9948 0 0 1 2.9948-2.9948 2.9948 2.9948 0 0 1 2.9948 2.9948z" fill="#fff" stroke="#000" stroke-dashoffset="8.3825" stroke-linejoin="round" stroke-width=".288"/>
  <g stroke-width=".42734" aria-label="4">
   <path d="m173.19 50.625c0.0752 0 0.0877-0.0188 0.0877-0.08775v-1.0843h0.48261c0.0815 0 0.10028-0.02507 0.10028-0.06268v-0.30084c0-0.03761-0.0313-0.05014-0.0752-0.05014h-0.50768v-2.5071c0-0.14416-0.0251-0.18803-0.0815-0.18803-0.0501 0-0.10028 0.05014-0.13789 0.10028l-2.037 2.8079c-0.0439 0.06268-0.0627 0.08775-0.0627 0.12535 0 0.05014 0.0376 0.07521 0.094 0.07521h1.7487v1.1031c0 0.05641 0.0188 0.06894 0.0752 0.06894zm-0.38233-1.5544h-1.2285c-0.11281 0-0.11908-0.06268-0.0439-0.16923l1.1532-1.592c0.0564-0.08148 0.11908-0.06268 0.11908 0.03761z" stroke-width=".42734"/>
  </g>
  <path d="m76.25 47.857a2.9948 2.9948 0 0 1-2.9948 2.9948 2.9948 2.9948 0 0 1-2.9948-2.9948 2.9948 2.9948 0 0 1 2.9948-2.9948 2.9948 2.9948 0 0 1 2.9948 2.9948z" fill="#fff" stroke="#000" stroke-dashoffset="8.3825" stroke-linejoin="round" stroke-width=".288"/>
  <g stroke-width=".42734" aria-label="5">
   <path d="m72.643 46.119h1.3037c0.1943 0 0.22564-0.02507 0.26951-0.12535l0.22564-0.62677c0.01253-0.03761-0.0188-0.04387-0.08775-0.07521-0.03761-0.01254-0.05641-0.0063-0.07521 0.03134-0.10655 0.20683-0.16296 0.31338-0.38233 0.31338h-1.3413c-0.08148 0-0.09401 0.02507-0.10028 0.10028l-0.22564 1.7675c-0.0063 0.03761 0 0.05641 0.03134 0.06894 0.04387 0.02507 0.07521 0.0188 0.11282 0.01253 0.16296-0.01253 0.47634-0.01253 0.8148 0.13789 0.4074 0.17549 0.55155 0.52022 0.55155 0.95895 0 0.55155-0.48888 0.96522-0.97776 0.96522-0.18803 0-0.40113-0.06268-0.49514-0.11908-0.09401-0.05641-0.20056-0.12535-0.31338-0.12535-0.08148 0-0.13789 0.07521-0.13789 0.16296 0 0.18176 0.35099 0.35099 0.8148 0.35099 0.8524 0 1.5857-0.6581 1.5795-1.5544 0-0.56409-0.35099-1.0028-0.96522-1.1658-0.13789-0.03761-0.55782-0.08148-0.71451-0.06894z" stroke-width=".42734"/>
  </g>
  <path d="m63.15 18.18a2.9948 2.9948 0 0 1-2.9948 2.9948 2.9948 2.9948 0 0 1-2.9948-2.9948 2.9948 2.9948 0 0 1 2.9948-2.9948 2.9948 2.9948 0 0 1 2.9948 2.9948z" fill="#fff" stroke="#000" stroke-dashoffset="8.3825" stroke-linejoin="round" stroke-width=".288"/>
  <g stroke-width=".42734" aria-label="6">
   <path d="m60.125 20.241c0.39486 0 0.6581-0.12535 0.89001-0.37606 0.21937-0.22564 0.3886-0.49514 0.3886-1.078 0-0.4074-0.32592-1.1031-1.1094-1.1031-0.36352 0-0.63303 0.11282-0.8336 0.28831 0.15669-1.0279 0.98402-1.7173 1.4854-1.943 0.03761-0.0188 0.05641-0.05014 0.05641-0.10028 0-0.04387-0.03761-0.06268-0.07521-0.06268-0.04387 0-0.13162 0.02507-0.2319 0.06894-0.28204 0.11282-0.6205 0.31965-0.92135 0.60796-0.66437 0.64557-0.95268 1.4165-0.95268 2.1999 0 0.32592 0.08775 0.8148 0.40113 1.1532 0.18803 0.22564 0.48261 0.34472 0.90254 0.34472zm0.03761-0.20056c-0.75839 0-0.80853-0.77719-0.80853-1.0968 0-0.26324 0.05014-0.52022 0.13789-0.68318 0.07521-0.15669 0.25071-0.30712 0.6205-0.30712 0.48261 0 0.75839 0.47007 0.75839 1.0279 0 0.99029-0.57036 1.0592-0.70825 1.0592z" stroke-width=".42734"/>
  </g>
  <path d="m46.574 63.898a2.9948 2.9948 0 0 1-2.9948 2.9948 2.9948 2.9948 0 0 1-2.9948-2.9948 2.9948 2.9948 0 0 1 2.9948-2.9948 2.9948 2.9948 0 0 1 2.9948 2.9948z" fill="#fff" stroke="#000" stroke-dashoffset="8.3825" stroke-linejoin="round" stroke-width=".288"/>
  <g stroke-width=".42734" aria-label="7">
   <path d="m43.192 61.678c-0.31965 0-0.36979-0.03134-0.35726-0.11909 0.01253-0.09401-0.01253-0.11282-0.08148-0.11282-0.07521 0-0.08148 0.0063-0.10028 0.04387l-0.3886 1.0091c-0.0188 0.05641-0.0188 0.06268 0.03761 0.09401 0.04387 0.02507 0.08775 0.03134 0.11909-0.01253 0.18176-0.26951 0.26324-0.43874 0.6393-0.43874h1.4854c-0.35726 0.70824-1.4478 2.7891-1.5544 3.0022-0.08148 0.16923-0.21937 0.4262-0.21937 0.58289 0 0.13789 0.08775 0.2319 0.24444 0.2319 0.11282 0 0.23817-0.06268 0.31338-0.31965 0.25697-0.86494 0.78346-2.0245 0.84613-2.1686 0.25071-0.6205 0.75839-1.5606 0.79599-1.6233 0.03761-0.06268 0.04387-0.08148 0.04387-0.11282 0-0.03761-0.03134-0.05641-0.06268-0.05641z" stroke-width=".42734"/>
  </g>
  <path d="m11.55 69.78a2.9948 2.9948 0 0 1-2.9948 2.9948 2.9948 2.9948 0 0 1-2.9948-2.9948 2.9948 2.9948 0 0 1 2.9948-2.9948 2.9948 2.9948 0 0 1 2.9948 2.9948z" fill="#fff" stroke="#000" stroke-dashoffset="8.3825" stroke-linejoin="round" stroke-width=".288"/>
  <g stroke-width=".42734" aria-label="8">
   <path d="m8.5066 71.84c0.75839 0 1.2347-0.61423 1.2347-1.1031 0-0.57036-0.38233-0.89001-0.88374-1.1282 0.66437-0.46381 0.86494-0.73958 0.86494-1.335 0-0.41367-0.48888-0.80853-1.0655-0.80853-0.89001 0-1.3413 0.6581-1.3413 1.2034 0 0.48261 0.38859 0.80853 0.85867 1.0718-0.53275 0.34472-0.8148 0.66437-0.8148 1.2034 0 0.40113 0.28831 0.89628 1.147 0.89628zm0.037606-0.2131c-0.36352 0-0.78973-0.23817-0.78973-0.78346 0-0.39486 0.22564-0.75839 0.62677-0.98402 0.49515 0.26324 0.90881 0.49514 0.90881 1.0028 0 0.52022-0.29458 0.76466-0.74585 0.76466zm0.012535-3.9048c0.43247 0 0.77092 0.31338 0.75212 0.77092-0.025071 0.41993-0.35099 0.78972-0.6581 0.98402-0.55155-0.32592-0.84613-0.50768-0.84613-0.95895 0-0.43874 0.30712-0.79599 0.75212-0.79599z" stroke-width=".42734"/>
  </g>
  <path d="m8.8766 95.179a2.9948 2.9948 0 0 1-2.9948 2.9948 2.9948 2.9948 0 0 1-2.9948-2.9948 2.9948 2.9948 0 0 1 2.9948-2.9948 2.9948 2.9948 0 0 1 2.9948 2.9948z" fill="#fff" stroke="#000" stroke-dashoffset="8.3825" stroke-linejoin="round" stroke-width=".288"/>
  <g stroke-width=".42734" aria-label="9">
   <path d="m5.8142 92.864c-0.26324 0-0.55155 0.11282-0.79599 0.32592-0.23817 0.20683-0.46381 0.72705-0.46381 0.96522 0 0.59543 0.29458 1.2535 1.1595 1.2535 0.36979 0 0.59543-0.15042 0.76465-0.30712l0.00627 0.01253c-0.13789 1.0467-0.97149 1.7299-1.5168 1.9492-0.031338 0.01253-0.056409 0.04387-0.056409 0.08775 0 0.06268 0.043874 0.08775 0.094015 0.08775 0.043874 0 0.13162-0.02507 0.1943-0.04387 0.34472-0.11282 0.58916-0.25071 0.90254-0.52648 0.73958-0.65184 1.0216-1.5168 1.0216-2.3566 0-0.1943-0.056409-0.68944-0.33845-1.0091-0.28205-0.30712-0.52649-0.43874-0.97149-0.43874zm0.018803 0.20056c0.57036 0 0.72705 0.54529 0.72705 1.0968 0 0.25697-0.018803 0.46381-0.094015 0.6205-0.08148 0.16296-0.26951 0.35726-0.63303 0.35726-0.4262 0-0.77719-0.4262-0.77719-1.0154 0-0.70198 0.4074-1.0592 0.77719-1.0592z" stroke-width=".42734"/>
  </g>
  <path d="m76.186 129.26a2.9948 2.9948 0 0 1-2.9948 2.9948 2.9948 2.9948 0 0 1-2.9948-2.9948 2.9948 2.9948 0 0 1 2.9948-2.9948 2.9948 2.9948 0 0 1 2.9948 2.9948z" fill="#fff" stroke="#000" stroke-dashoffset="8.3825" stroke-linejoin="round" stroke-width=".288"/>
  <g transform="translate(12.769 1.7306)" stroke-width=".31584" aria-label="10">
   <path d="m59.081 127.59c0 0.0834 0 1.0191-0.0046 1.0793-0.0093 0.24551-0.01853 0.25941-0.31963 0.25941h-0.21309c-0.03706 0-0.06485 5e-3 -0.06485 0.0278v0.11581c0 0.0278 0.0139 0.0371 0.03706 0.0371s0.67632-0.0139 0.71801-0.0139c0.04169 0 0.67168 0.0139 0.71337 0.0139 0.03243 0 0.04169-9e-3 0.04169-0.0371v-0.10654c0-0.0232-0.0139-0.0371-0.04632-0.0371h-0.16676c-0.3011 0-0.31963-0.0324-0.32426-0.27331 0-0.0602-0.0046-1.0423-0.0046-1.0978v-0.19456c0-0.59757 0.0139-1.3248 0.0139-1.3665 0-0.0371-0.0046-0.0648-0.03243-0.0648-0.02316 0-0.04169 0.0139-0.06485 0.0278l-0.95889 0.55125c-0.03243 0.0185-0.03706 0.0371-0.02779 0.0556l0.03706 0.0834c0.0093 0.0185 0.02779 0.0185 0.04632 0.0139l0.32426-0.10654c0.07412-0.0232 0.1436-0.0371 0.18529-0.0371 0.08801 0 0.10654 0.10191 0.11118 0.25941 0.0046 0.36595 0 0.58367 0 0.64389z"/>
   <path d="m61.532 129.16c0.59757 0 0.99131-0.58367 0.99131-1.6445 0-0.70411-0.315-1.5889-0.99594-1.5889-0.59294 0-1.033 0.71337-1.033 1.7742 0 0.56051 0.2872 1.4592 1.0376 1.4592zm0.0046-0.16677c-0.16213 0-0.33816-0.088-0.48176-0.39374-0.10191-0.21309-0.1575-0.53735-0.1575-0.97742 0-0.38448 0.01853-0.92646 0.18529-1.2507 0.10654-0.20845 0.23625-0.27794 0.41691-0.27794 0.39374 0 0.62536 0.63926 0.62536 1.3202 0 0.67631-0.04169 1.0284-0.1436 1.2507-0.12507 0.2733-0.3011 0.32889-0.4447 0.32889z"/>
  </g>
  <path d="m193.65 129.21a2.9948 2.9948 0 0 1-2.9948 2.9948 2.9948 2.9948 0 0 1-2.9948-2.9948 2.9948 2.9948 0 0 1 2.9948-2.9948 2.9948 2.9948 0 0 1 2.9948 2.9948z" fill="#fff" stroke="#000" stroke-dashoffset="8.3825" stroke-linejoin="round" stroke-width=".288"/>
  <g stroke-width=".31584" aria-label="11">
   <path d="m189.31 129.28c0 0.0834 0 1.0191-5e-3 1.0793-9e-3 0.24552-0.0185 0.25941-0.31963 0.25941h-0.21309c-0.0371 0-0.0649 5e-3 -0.0649 0.0278v0.1158c0 0.0278 0.0139 0.0371 0.0371 0.0371s0.67631-0.0139 0.718-0.0139c0.0417 0 0.67169 0.0139 0.71338 0.0139 0.0324 0 0.0417-9e-3 0.0417-0.0371v-0.10654c0-0.0232-0.0139-0.0371-0.0463-0.0371h-0.16677c-0.3011 0-0.31962-0.0324-0.32426-0.2733 0-0.0602-5e-3 -1.0423-5e-3 -1.0979v-0.19455c0-0.59757 0.0139-1.3248 0.0139-1.3665 0-0.0371-5e-3 -0.0649-0.0324-0.0649-0.0232 0-0.0417 0.0139-0.0649 0.0278l-0.95889 0.55124c-0.0324 0.0185-0.0371 0.0371-0.0278 0.0556l0.0371 0.0834c9e-3 0.0185 0.0278 0.0185 0.0463 0.0139l0.32426-0.10654c0.0741-0.0232 0.1436-0.0371 0.18529-0.0371 0.088 0 0.10655 0.10191 0.11118 0.25941 5e-3 0.36595 0 0.58367 0 0.64389z"/>
   <path d="m191.63 129.28c0 0.0834 0 1.0191-5e-3 1.0793-9e-3 0.24552-0.0185 0.25941-0.31963 0.25941h-0.21309c-0.0371 0-0.0648 5e-3 -0.0648 0.0278v0.1158c0 0.0278 0.0139 0.0371 0.0371 0.0371s0.67632-0.0139 0.71801-0.0139c0.0417 0 0.67168 0.0139 0.71337 0.0139 0.0324 0 0.0417-9e-3 0.0417-0.0371v-0.10654c0-0.0232-0.0139-0.0371-0.0463-0.0371h-0.16677c-0.30109 0-0.31962-0.0324-0.32426-0.2733 0-0.0602-5e-3 -1.0423-5e-3 -1.0979v-0.19455c0-0.59757 0.0139-1.3248 0.0139-1.3665 0-0.0371-5e-3 -0.0649-0.0324-0.0649-0.0232 0-0.0417 0.0139-0.0648 0.0278l-0.95889 0.55124c-0.0324 0.0185-0.037 0.0371-0.0278 0.0556l0.0371 0.0834c9e-3 0.0185 0.0278 0.0185 0.0463 0.0139l0.32426-0.10654c0.0741-0.0232 0.1436-0.0371 0.18529-0.0371 0.088 0 0.10655 0.10191 0.11118 0.25941 5e-3 0.36595 0 0.58367 0 0.64389z"/>
  </g>
  <path d="m191.85 117.21a2.9948 2.9948 0 0 1-2.9948 2.9948 2.9948 2.9948 0 0 1-2.9948-2.9948 2.9948 2.9948 0 0 1 2.9948-2.9948 2.9948 2.9948 0 0 1 2.9948 2.9948z" fill="#fff" stroke="#000" stroke-dashoffset="8.3825" stroke-linejoin="round" stroke-width=".288"/>
  <g stroke-width=".31584" aria-label="12">
   <path d="m187.52 117.27c0 0.0834 0 1.0191-5e-3 1.0793-9e-3 0.24551-0.0185 0.25941-0.31963 0.25941h-0.21308c-0.0371 0-0.0648 5e-3 -0.0648 0.0278v0.11581c0 0.0278 0.0139 0.0371 0.037 0.0371 0.0232 0 0.67632-0.0139 0.71801-0.0139 0.0417 0 0.67168 0.0139 0.71337 0.0139 0.0324 0 0.0417-9e-3 0.0417-0.0371v-0.10655c0-0.0232-0.0139-0.037-0.0463-0.037h-0.16676c-0.3011 0-0.31963-0.0324-0.32426-0.27331 0-0.0602-5e-3 -1.0423-5e-3 -1.0979v-0.19455c0-0.59757 0.0139-1.3248 0.0139-1.3665 0-0.0371-5e-3 -0.0649-0.0324-0.0649-0.0232 0-0.0417 0.0139-0.0649 0.0278l-0.95888 0.55124c-0.0324 0.0185-0.0371 0.0371-0.0278 0.0556l0.0371 0.0834c9e-3 0.0185 0.0278 0.0185 0.0463 0.0139l0.32426-0.10654c0.0741-0.0232 0.1436-0.0371 0.18529-0.0371 0.088 0 0.10654 0.10191 0.11117 0.25941 5e-3 0.36595 0 0.58367 0 0.64389z"/>
   <path d="m190.25 118.78c0.13897 0 0.22698 5e-3 0.25478 0.0649 0.0185 0.0417 0.0185 0.0463 0.0602 0.0463 0.0834 0 0.0463 0 0.0695-0.051l0.3011-0.72264c0.0185-0.0278 0-0.0463-0.0371-0.0649-0.0463-0.0232-0.0602-0.0185-0.0834 0.0232-0.10191 0.17139-0.22235 0.38911-0.53735 0.38911h-0.94035c0.20382-0.18066 0.56977-0.44933 0.88477-0.81065 0.4169-0.46786 0.5744-0.80139 0.5744-1.1951 0-0.52345-0.42154-0.84308-0.81065-0.84308-0.62536 0-0.85234 0.51418-0.92646 0.69484-0.0185 0.0417-0.0139 0.0556 0 0.0649l0.0649 0.0278c0.0232 0.0139 0.0371 9e-3 0.0556-0.0232 0.0787-0.13897 0.22698-0.4447 0.62073-0.44934 0.33352-5e-3 0.58367 0.24088 0.59756 0.65316 0.0139 0.40301-0.19919 0.7597-0.56977 1.1581-0.37058 0.39838-0.77823 0.75507-0.99594 0.95889-0.0232 0.0232-0.0278 0.0371-0.0139 0.0695 0.0139 0.0278 0.0278 0.0278 0.051 0.0278 0.0185 0 0.0741-5e-3 0.14361-9e-3 0.0695-5e-3 0.15286-9e-3 0.23161-9e-3z"/>
  </g>
  <path d="m204.24 116.83a2.9948 2.9948 0 0 1-2.9948 2.9948 2.9948 2.9948 0 0 1-2.9948-2.9948 2.9948 2.9948 0 0 1 2.9948-2.9948 2.9948 2.9948 0 0 1 2.9948 2.9948z" fill="#fff" stroke="#000" stroke-dashoffset="8.3825" stroke-linejoin="round" stroke-width=".288"/>
  <g stroke-width=".31584" aria-label="13">
   <path d="m199.9 116.89c0 0.0834 0 1.0191-5e-3 1.0793-9e-3 0.24551-0.0185 0.25941-0.31963 0.25941h-0.21309c-0.0371 0-0.0649 5e-3 -0.0649 0.0278v0.11581c0 0.0278 0.0139 0.0371 0.0371 0.0371s0.67632-0.0139 0.71801-0.0139c0.0417 0 0.67168 0.0139 0.71337 0.0139 0.0324 0 0.0417-9e-3 0.0417-0.0371v-0.10655c0-0.0232-0.0139-0.037-0.0463-0.037h-0.16677c-0.30109 0-0.31962-0.0324-0.32426-0.27331 0-0.0602-5e-3 -1.0423-5e-3 -1.0979v-0.19455c0-0.59757 0.0139-1.3248 0.0139-1.3665 0-0.0371-5e-3 -0.0649-0.0324-0.0649-0.0232 0-0.0417 0.0139-0.0648 0.0278l-0.95889 0.55125c-0.0324 0.0185-0.0371 0.037-0.0278 0.0556l0.0371 0.0834c9e-3 0.0185 0.0278 0.0185 0.0463 0.0139l0.32426-0.10654c0.0741-0.0232 0.1436-0.0371 0.18529-0.0371 0.088 0 0.10655 0.10191 0.11118 0.25941 5e-3 0.36595 0 0.58367 0 0.64389z"/>
   <path d="m202.03 118.47c0.62536 0 1.1581-0.42154 1.1581-1.0191 0-0.40765-0.36132-0.73191-0.67631-0.81066 0.24088-0.14823 0.51881-0.39837 0.51881-0.79675 0-0.23625-0.18066-0.60683-0.68558-0.60683-0.52345 0-0.80602 0.4308-0.87087 0.75043-9e-3 0.0417-5e-3 0.0648 5e-3 0.0695l0.0834 0.0185c0.0185 5e-3 0.0324-9e-3 0.0463-0.0463 0.0973-0.26404 0.2733-0.50492 0.61609-0.50492 0.29184 0 0.4725 0.22235 0.4725 0.51882 0 0.35668-0.30573 0.6022-0.6022 0.65778-0.0417 9e-3 -0.0556 0.0185-0.0556 0.0649 0 0.0648 0 0.051 0.0834 0.0695 0.37522 0.088 0.66705 0.36132 0.66705 0.82918 0 0.32426-0.25477 0.63463-0.68094 0.63463-0.32427 0-0.40765-0.13897-0.43081-0.18993-9e-3 -0.0232-0.0371-0.20382-0.18992-0.20382-0.0788 0-0.15287 0.0787-0.15287 0.19919 0 0.13434 0.14824 0.36595 0.69485 0.36595z"/>
  </g>
  <path d="m205.66 38.188a2.9948 2.9948 0 0 1-2.9948 2.9948 2.9948 2.9948 0 0 1-2.9948-2.9948 2.9948 2.9948 0 0 1 2.9948-2.9948 2.9948 2.9948 0 0 1 2.9948 2.9948z" fill="#fff" stroke="#000" stroke-dashoffset="8.3825" stroke-linejoin="round" stroke-width=".288"/>
  <g stroke-width=".31584" aria-label="14">
   <path d="m201.32 38.248c0 0.08338 0 1.0191-5e-3 1.0793-9e-3 0.24551-0.0185 0.25941-0.31962 0.25941h-0.21309c-0.0371 0-0.0649 0.0046-0.0649 0.02779v0.11581c0 0.02779 0.0139 0.03706 0.0371 0.03706s0.67631-0.0139 0.718-0.0139c0.0417 0 0.67169 0.0139 0.71338 0.0139 0.0324 0 0.0417-0.0093 0.0417-0.03706v-0.10654c0-0.02316-0.0139-0.03706-0.0463-0.03706h-0.16676c-0.3011 0-0.31963-0.03243-0.32426-0.27331 0-0.06022-5e-3 -1.0423-5e-3 -1.0979v-0.19456c0-0.59757 0.0139-1.3248 0.0139-1.3665 0-0.03706-5e-3 -0.06485-0.0324-0.06485-0.0232 0-0.0417 0.0139-0.0649 0.02779l-0.95889 0.55124c-0.0324 0.01853-0.0371 0.03706-0.0278 0.05559l0.0371 0.08338c9e-3 0.01853 0.0278 0.01853 0.0463 0.0139l0.32426-0.10654c0.0741-0.02316 0.1436-0.03706 0.18529-0.03706 0.088 0 0.10654 0.10191 0.11118 0.25941 5e-3 0.36595 0 0.58367 0 0.64389z"/>
   <path d="m204.33 39.754c0.0556 0 0.0648-0.0139 0.0648-0.06485v-0.80139h0.35669c0.0602 0 0.0741-0.01853 0.0741-0.04632v-0.22235c0-0.02779-0.0232-0.03706-0.0556-0.03706h-0.37522v-1.8529c0-0.10654-0.0185-0.13897-0.0602-0.13897-0.0371 0-0.0741 0.03706-0.10191 0.07412l-1.5055 2.0753c-0.0324 0.04632-0.0463 0.06485-0.0463 0.09265 0 0.03706 0.0278 0.05559 0.0695 0.05559h1.2924v0.81528c0 0.04169 0.0139 0.05096 0.0556 0.05096zm-0.28257-1.1488h-0.90793c-0.0834 0-0.088-0.04632-0.0324-0.12507l0.85235-1.1766c0.0417-0.06022 0.088-0.04632 0.088 0.02779z"/>
  </g>
  <rect transform="rotate(-35.566)" x="132.66" y="132.77" width="14.141" height="4.5554" fill="url(#pattern3054)" stroke="#000" stroke-dashoffset="8.3825" stroke-linejoin="round" stroke-width=".21085"/>
  <path transform="matrix(.02459 -.32638 .50448 .46029 180.1 78.923)" d="m194.3 8.9564-10.226-3.5874 8.2196-7.0619z" fill="#f00" stroke="#f00" stroke-dashoffset="8.3825" stroke-linejoin="round" stroke-width="1.188"/>
  <g fill="#fff">
   <ellipse cx="173.05" cy="8.6254" rx=".94696" ry=".94696"/>
   <ellipse cx="172.76" cy="19.919" rx=".94696" ry=".94696"/>
   <ellipse cx="179.05" cy="33.016" rx=".94696" ry=".94696"/>
   <ellipse cx="168.86" cy="42.872" rx=".94696" ry=".94696"/>
   <ellipse cx="76.787" cy="44.393" rx=".94696" ry=".94696"/>
   <ellipse cx="59.92" cy="11.519" rx=".94696" ry=".94696"/>
   <ellipse cx="38.82" cy="59.541" rx=".94696" ry=".94696"/>
   <ellipse cx="14.676" cy="74.093" rx=".94696" ry=".94696"/>
   <ellipse cx="9.7167" cy="90.917" rx=".94696" ry=".94696"/>
   <ellipse cx="75.338" cy="124.27" rx=".94696" ry=".94696"/>
   <ellipse cx="192.27" cy="124.41" rx=".94696" ry=".94696"/>
   <ellipse cx="193.58" cy="119.78" rx=".94696" ry=".94696"/>
   <ellipse cx="196.15" cy="116.97" rx=".94696" ry=".94696"/>
   <ellipse cx="196.24" cy="40.824" rx=".94696" ry=".94696"/>
  </g>
 </g>
</svg>
