<?xml version="1.0" encoding="utf-8"?>
<!-- Generator: Adobe Illustrator 23.0.3, SVG Export Plug-In . SVG Version: 6.00 Build 0)  -->
<svg version="1.1" xmlns="http://www.w3.org/2000/svg" xmlns:xlink="http://www.w3.org/1999/xlink" x="0px" y="0px"
	 viewBox="0 0 777.3 331.4" style="enable-background:new 0 0 777.3 331.4;" xml:space="preserve">
<style type="text/css">
	.st0{fill:none;stroke:#000000;stroke-width:8.24;stroke-miterlimit:10;}
	.st1{fill:none;stroke:#000000;stroke-width:3.18;stroke-miterlimit:10;}
	.st2{fill:#FF0000;}
	.st3{fill:#FFFFFF;}
	.st4{fill:#FFFFFF;stroke:#000000;stroke-width:0.81;stroke-miterlimit:10;}
	.st5{fill:#FFFFFF;stroke:#000000;stroke-width:0.61;stroke-miterlimit:10;}
</style>
<g id="Layer_2">
	<path class="st0" d="M388.9,100c0,0,62.7,36.7,72.9,42.5c10.1,5.8,16.2,12.4,15.9,16.8c-0.3,4.3-4.6,10.1-9.3,13
		c-4.6,2.9-12.7,6.9-15.9,11.3c-3.2,4.3-5.8,7.8-6.1,18.8s-0.3,19.7-2.6,26.3c-1.9,5.4-8.7,17.9-32,26c-22.6,7.8-29.7,6-48.4,5.5
		c-17.3-0.5-34.4-10.1-34.4-10.1s-89.1-50.6-97.7-55.5c-8.7-4.9-22.6-7.5-33.8-4.9c-11.6,2.6-14.6,5-21.1,9.8
		c-5.4,4-13.3,10.1-20.8,11c-7.5,0.9-16.9,0.4-24.3-2.9c-6.7-3-15.6-12.2-19.9-16.8c-4.3-4.6-13.5-10.7-26.6-11
		c-10.7-0.3-34.2,2.3-47.7,18.3c-5.6,6.6-9.7,11.7-9.7,24.4c0,9.4,8.6,22,16.9,22.1c16.9,0.3,12.8-2.2,25.7-2.6
		c15.9-0.5,22.6,1.2,31.5,4.6s33.5,9.4,46.6,9.5c17.4,0.2,122.1-2,129-2c17.2-0.1,31.2,3.5,41.6,8.1c10.4,4.6,31.8,14.7,40.5,17.3
		c8.7,2.6,24.3,8.7,48,8.4s66.2-2.9,90.2-11.6c24-8.7,99.5-34.4,120.9-43.7c21.4-9.3,65.1-30.8,74-36.7c5.6-3.7,9-5.8,9.3-11
		c0.3-5.2-8.1-11-12.4-13c-4.3-2-7.4-3.3-12.7-7.8c-5.8-4.9-8.5-10.5-8.5-16.6c0-11.3,7.5-19.6,16.6-19.9c5.8-0.2,23.5,0.3,28.4-0.6
		c4.9-0.9,12.1-3.5,15.9-9.5s8.2-14.9,9.6-17.1c2.4-3.7,1.7-5.8-2.6-7.8c-4.3-2-6.7-5.2-4.6-11.3s6.2-22.8,7-27.2
		c0.7-4.1-0.3-9.5-6.4-9.5c-7.8,0-196.6-7.2-220-7.8C488.1,36.4,164,23.8,125.9,21.6c-12-0.7-14.8,6.5-14,10.2
		c1.5,6.9,18.5,18.2,28.9,24.3s14.2,7.5,26.6,8.1c12.4,0.6,19.7-2.9,26.6-7.2s21.1-12.4,37.9-16.2c11.9-2.7,33.8-2.2,42.2-0.9
		c11.9,1.9,23.7,6.9,34.4,13S388.9,100,388.9,100z"/>
	<path class="st1" d="M192.4,58c12.4-2.6,36.4-6.8,63.8-6.8s41.6,8.2,50.1,12.9c8.5,4.7,128,74.1,138.1,79.9s12.6,13,12.6,17.8
		c0,4.8-2.2,12.6-6.5,17.1c-4.3,4.6-3.8,17.8-3.9,21.5"/>
	<path class="st2" d="M349.3,44.5l-7.3,11.7l24.9,7.5L349.3,44.5z"/>
	<path d="M376.1,56.1l-4.6,7.7l7.7,4.6l4.6-7.7L376.1,56.1z"/>
	<path class="st3" d="M383.8,60.8l-4.6,7.7l7.7,4.6l4.6-7.7L383.8,60.8z"/>
	<path d="M391.5,65.4l-4.6,7.7l7.7,4.6l4.6-7.7L391.5,65.4z"/>
	<path class="st3" d="M371.6,63.8l-4.6,7.7l7.7,4.6l4.6-7.7L371.6,63.8z"/>
	<path class="st3" d="M386.9,73l-4.6,7.7l7.7,4.6l4.6-7.7L386.9,73z"/>
	<path d="M379.2,68.3l-4.6,7.7l7.7,4.6l4.6-7.7L379.2,68.3z"/>
	<path d="M366.9,71.3l-4.6,7.7l7.7,4.6l4.6-7.7L366.9,71.3z"/>
	<path class="st3" d="M374.6,76l-4.6,7.7l7.7,4.6l4.6-7.7L374.6,76z"/>
	<path d="M382.3,80.6l-4.6,7.7l7.7,4.6l4.6-7.7L382.3,80.6z"/>
	<path class="st3" d="M362.3,78.9l-4.6,7.7l7.7,4.6l4.6-7.7L362.3,78.9z"/>
	<path class="st3" d="M377.7,88.2l-4.6,7.7l7.7,4.6l4.6-7.7L377.7,88.2z"/>
	<path d="M370.1,83.5l-4.6,7.7l7.7,4.6l4.6-7.7L370.1,83.5z"/>
	<path d="M357.6,86.2l-4.6,7.7l7.7,4.6l4.6-7.7L357.6,86.2z"/>
	<path class="st3" d="M365.2,90.9l-4.6,7.7l7.7,4.6l4.6-7.7L365.2,90.9z"/>
	<path d="M372.9,95.5l-4.6,7.7l7.7,4.6l4.6-7.7L372.9,95.5z"/>
</g>
<g id="Layer_3">
	<circle class="st4" cx="477.2" cy="159.3" r="3.6"/>
	<circle class="st4" cx="449.1" cy="189" r="3.6"/>
	<circle class="st4" cx="432.9" cy="243.5" r="3.6"/>
	<circle class="st4" cx="207.9" cy="188.7" r="3.6"/>
	<circle class="st4" cx="146.9" cy="211" r="3.6"/>
	<circle class="st4" cx="102.5" cy="184.1" r="3.6"/>
	<circle class="st4" cx="32.3" cy="204.3" r="3.6"/>
	<circle class="st4" cx="44.1" cy="244.5" r="3.6"/>
	<circle class="st4" cx="296.2" cy="255.7" r="3.6"/>
	<circle class="st4" cx="443.5" cy="286.1" r="3.6"/>
	<circle class="st4" cx="701.4" cy="185.2" r="3.6"/>
	<circle class="st4" cx="667.8" cy="145.9" r="3.6"/>
	<circle class="st4" cx="717.6" cy="125.7" r="3.6"/>
	<circle class="st4" cx="739.6" cy="96.7" r="3.6"/>
	<circle class="st4" cx="730.3" cy="86.3" r="3.6"/>
	<circle class="st4" cx="736.6" cy="46.9" r="3.6"/>
	<circle class="st4" cx="112.1" cy="28.1" r="3.6"/>
	<circle class="st4" cx="169.4" cy="64.1" r="3.6"/>
	<circle class="st4" cx="258.6" cy="38.8" r="3.6"/>
	<path class="st5" d="M484.9,159.3c0-5.8,4.7-10.5,10.5-10.5s10.5,4.7,10.5,10.5c0,5.8-4.7,10.5-10.5,10.5S484.9,165.1,484.9,159.3"
		/>
	<g>
		<path d="M496.1,162.9h-0.9v-5.5c-0.2,0.2-0.5,0.4-0.8,0.6c-0.3,0.2-0.6,0.3-0.9,0.4v-0.8c0.5-0.2,0.9-0.5,1.3-0.8
			c0.3-0.3,0.6-0.6,0.8-0.9h0.5V162.9z"/>
	</g>
	<circle class="st5" cx="429.3" cy="185.3" r="10.5"/>
	<g>
		<path d="M431.3,188.1v0.8h-4.6c0-0.2,0-0.4,0.1-0.6c0.1-0.3,0.3-0.7,0.6-0.9c0.3-0.4,0.7-0.8,1.1-1.1c0.6-0.4,1.1-0.9,1.5-1.5
			c0.2-0.3,0.4-0.6,0.4-1c0-0.3-0.1-0.6-0.4-0.9c-0.6-0.5-1.4-0.5-2,0c-0.2,0.3-0.4,0.6-0.4,1l-0.9-0.1c0-0.6,0.3-1.1,0.7-1.5
			c0.5-0.4,1-0.6,1.6-0.5c0.6,0,1.2,0.2,1.6,0.6c0.4,0.3,0.6,0.8,0.7,1.4c0,0.3-0.1,0.6-0.2,0.8c-0.1,0.3-0.3,0.6-0.6,0.9
			c-0.4,0.5-0.9,0.9-1.3,1.3c-0.5,0.4-0.8,0.7-1,0.9c-0.1,0.1-0.3,0.3-0.4,0.5L431.3,188.1z"/>
	</g>
	<circle class="st5" cx="416.1" cy="230.3" r="10.5"/>
	<g>
		<path d="M413.6,232.1l0.9-0.1c0.1,0.4,0.2,0.8,0.5,1.1c0.2,0.2,0.5,0.3,0.9,0.3c0.4,0,0.7-0.2,1-0.4c0.3-0.3,0.4-0.6,0.4-1
			c0-0.4-0.1-0.7-0.4-1c-0.3-0.3-0.6-0.4-1-0.4c-0.2,0-0.4,0-0.6,0.1l0.1-0.8h0.1c0.4,0,0.7-0.1,1-0.3c0.3-0.2,0.5-0.5,0.4-0.9
			c0-0.3-0.1-0.6-0.3-0.8c-0.5-0.4-1.2-0.4-1.7,0c-0.2,0.3-0.4,0.6-0.4,0.9l-0.9-0.1c0.1-0.5,0.3-1,0.7-1.3c0.4-0.3,0.9-0.5,1.4-0.5
			c0.4,0,0.7,0.1,1.1,0.3c0.6,0.3,1,0.9,1,1.6c0,0.3-0.1,0.6-0.2,0.8c-0.2,0.3-0.4,0.5-0.7,0.6c0.4,0.1,0.8,0.3,1,0.6
			c0.2,0.3,0.4,0.7,0.3,1.1c0,0.6-0.2,1.2-0.7,1.6c-0.5,0.4-1.1,0.7-1.7,0.6c-0.6,0-1.1-0.2-1.5-0.6
			C413.8,233.2,413.6,232.7,413.6,232.1z"/>
	</g>
	<path class="st5" d="M204.3,171.4c0-5.8,4.7-10.5,10.5-10.5s10.5,4.7,10.5,10.5s-4.7,10.5-10.5,10.5S204.3,177.2,204.3,171.4"/>
	<g>
		<path d="M215,175v-1.7h-3v-0.8l3.2-4.6h0.7v4.6h1v0.8h-1v1.7H215z M215,172.6v-3.2l-2.2,3.2H215z"/>
	</g>
	<path class="st5" d="M161,237.4c-5.8,0-10.5-4.7-10.5-10.5s4.7-10.5,10.5-10.5s10.5,4.7,10.5,10.5S166.8,237.4,161,237.4"/>
	<g>
		<path d="M158.5,228.7l0.9-0.1c0,0.4,0.2,0.7,0.5,1c0.2,0.2,0.6,0.3,0.9,0.3c0.4,0,0.8-0.2,1.1-0.5c0.3-0.4,0.4-0.8,0.4-1.3
			c0-0.4-0.1-0.8-0.4-1.2c-0.3-0.3-0.7-0.4-1.1-0.4c-0.3,0-0.5,0.1-0.8,0.2c-0.2,0.1-0.4,0.3-0.5,0.5l-0.8-0.1l0.7-3.6h3.5v0.8H160
			l-0.4,1.9c0.4-0.3,0.9-0.4,1.3-0.4c0.6,0,1.1,0.2,1.5,0.6c0.4,0.4,0.6,1,0.6,1.6c0,0.6-0.2,1.2-0.5,1.6c-0.9,1-2.4,1.1-3.4,0.3
			C158.7,229.7,158.5,229.3,158.5,228.7z"/>
	</g>
	<path class="st5" d="M115.8,178.5c-5.8,0-10.5-4.7-10.5-10.5s4.7-10.5,10.5-10.5s10.5,4.7,10.5,10.5"/>
	<path class="st5" d="M126.3,168c0,5.8-4.7,10.5-10.5,10.5"/>
	<g>
		<path d="M117.7,166.3l-0.9,0.1c0-0.3-0.2-0.5-0.3-0.7c-0.2-0.2-0.6-0.4-0.9-0.3c-0.3,0-0.5,0.1-0.7,0.2c-0.3,0.2-0.5,0.5-0.6,0.9
			c-0.2,0.5-0.3,1.1-0.2,1.6c0.4-0.6,1-0.9,1.7-0.9c0.6,0,1.1,0.2,1.5,0.6c0.4,0.4,0.6,1,0.6,1.6c0,0.4-0.1,0.8-0.3,1.2
			c-0.2,0.4-0.4,0.7-0.8,0.9c-0.3,0.2-0.7,0.3-1.1,0.3c-0.7,0-1.3-0.3-1.8-0.8c-0.5-0.8-0.8-1.7-0.7-2.6c-0.1-1.1,0.2-2.1,0.8-3
			c0.4-0.5,1.1-0.8,1.8-0.8C116.7,164.5,117.6,165.3,117.7,166.3C117.7,166.3,117.7,166.3,117.7,166.3L117.7,166.3z M114.2,169.3
			c0,0.3,0.1,0.6,0.2,0.9c0.1,0.3,0.3,0.5,0.5,0.6c0.2,0.1,0.5,0.2,0.7,0.2c0.4,0,0.7-0.2,0.9-0.4c0.3-0.3,0.4-0.8,0.4-1.2
			c0-0.4-0.1-0.8-0.4-1.1c-0.3-0.3-0.6-0.4-1-0.4c-0.4,0-0.7,0.1-1,0.4C114.3,168.5,114.1,169,114.2,169.3L114.2,169.3z"/>
	</g>
	<path class="st5" d="M32.3,187.5c0,5.8-4.7,10.5-10.5,10.5s-10.5-4.7-10.5-10.5S16,177,21.8,177S32.3,181.7,32.3,187.5"/>
	<g>
		<path d="M19.3,185v-0.8h4.6v0.7c-0.5,0.6-1,1.2-1.3,1.9c-0.4,0.8-0.8,1.6-1,2.4c-0.2,0.6-0.3,1.3-0.3,1.9h-0.9
			c0-0.7,0.1-1.3,0.3-2c0.2-0.8,0.5-1.5,0.9-2.3c0.3-0.7,0.8-1.3,1.2-1.8L19.3,185z"/>
	</g>
	<circle class="st5" cx="28.7" cy="257.9" r="10.5"/>
	<g>
		<path d="M27.5,257.7c-0.3-0.1-0.6-0.3-0.8-0.6c-0.2-0.3-0.3-0.6-0.3-0.9c0-0.5,0.2-1,0.6-1.3c0.9-0.7,2.1-0.7,2.9,0
			c0.4,0.3,0.6,0.8,0.6,1.3c0,0.3-0.1,0.6-0.3,0.9c-0.2,0.3-0.5,0.5-0.8,0.6c0.4,0.1,0.7,0.4,1,0.7c0.2,0.3,0.3,0.7,0.3,1.1
			c0,0.6-0.2,1.1-0.6,1.5c-1,0.8-2.4,0.8-3.4,0c-0.4-0.4-0.6-1-0.6-1.5c0-0.4,0.1-0.8,0.3-1.1C26.7,258.1,27.1,257.8,27.5,257.7z
			 M27,259.5c0,0.3,0.1,0.5,0.2,0.7c0.1,0.2,0.3,0.4,0.5,0.5c0.2,0.1,0.5,0.2,0.7,0.2c0.4,0,0.7-0.1,1-0.4c0.3-0.3,0.4-0.6,0.4-1
			c0-0.4-0.1-0.7-0.4-1c-0.3-0.3-0.6-0.4-1-0.4C27.7,258.1,27,258.7,27,259.5C27,259.5,27,259.5,27,259.5L27,259.5z M27.3,256.3
			c0,0.3,0.1,0.6,0.3,0.8c0.2,0.2,0.5,0.3,0.8,0.3c0.3,0,0.6-0.1,0.8-0.3c0.4-0.4,0.4-1.1,0-1.6c0,0,0,0,0,0
			c-0.2-0.2-0.5-0.3-0.8-0.3c-0.3,0-0.6,0.1-0.8,0.3C27.4,255.7,27.3,256,27.3,256.3L27.3,256.3z"/>
	</g>
	<circle class="st5" cx="289.3" cy="272.9" r="10.5"/>
	<g>
		<path d="M286.9,274.9l0.8-0.1c0,0.3,0.2,0.6,0.4,0.9c0.2,0.2,0.5,0.3,0.8,0.3c0.2,0,0.5-0.1,0.7-0.2c0.2-0.1,0.4-0.3,0.5-0.5
			c0.1-0.3,0.3-0.5,0.3-0.8c0.1-0.3,0.1-0.7,0.1-1c0-0.1,0-0.1,0-0.2c-0.6,0.9-1.8,1.2-2.8,0.6c-0.1-0.1-0.3-0.2-0.4-0.3
			c-0.8-1-0.8-2.4,0-3.4c0.4-0.4,1-0.7,1.6-0.6c0.5,0,0.9,0.1,1.3,0.3c0.4,0.2,0.7,0.6,0.9,1c0.2,0.6,0.3,1.3,0.3,2
			c0,0.7-0.1,1.5-0.3,2.1c-0.2,0.5-0.5,0.9-0.9,1.2c-0.4,0.3-0.9,0.4-1.4,0.4c-0.5,0-1-0.1-1.4-0.5
			C287.2,275.8,286.9,275.3,286.9,274.9z M290.4,271.8c0-0.4-0.1-0.9-0.4-1.2c-0.2-0.3-0.6-0.4-0.9-0.4c-0.4,0-0.8,0.2-1,0.5
			c-0.3,0.3-0.4,0.8-0.4,1.2c0,0.4,0.1,0.8,0.4,1.1c0.3,0.3,0.6,0.4,1,0.4c0.4,0,0.7-0.1,1-0.4C290.3,272.6,290.4,272.2,290.4,271.8
			z"/>
	</g>
	<circle class="st5" cx="443.5" cy="303.7" r="10.5"/>
	<g>
		<path d="M441.2,307.3h-0.9v-5.5c-0.2,0.2-0.5,0.4-0.8,0.6c-0.3,0.2-0.6,0.3-0.9,0.4V302c0.5-0.2,0.9-0.5,1.3-0.8
			c0.3-0.3,0.6-0.6,0.8-0.9h0.6L441.2,307.3z"/>
		<path d="M443.4,303.8c0-0.7,0.1-1.4,0.3-2c0.1-0.5,0.4-0.9,0.8-1.2c0.7-0.5,1.5-0.5,2.3-0.2c0.3,0.2,0.5,0.4,0.7,0.6
			c0.2,0.3,0.3,0.6,0.4,1c0.1,0.5,0.2,1.1,0.2,1.7c0,0.7-0.1,1.4-0.3,2c-0.1,0.5-0.4,0.9-0.8,1.2c-0.4,0.3-0.8,0.4-1.3,0.4
			c-0.6,0-1.2-0.2-1.6-0.7C443.6,305.8,443.4,304.8,443.4,303.8z M444.3,303.8c-0.1,0.8,0.1,1.6,0.4,2.3c0.3,0.6,1,0.7,1.6,0.4
			c0.2-0.1,0.3-0.2,0.4-0.4c0.5-1.5,0.5-3.1,0-4.6c-0.2-0.3-0.6-0.6-1-0.6c-0.4,0-0.8,0.2-1,0.5C444.4,302.2,444.2,303,444.3,303.8z
			"/>
	</g>
	<circle class="st5" cx="713.9" cy="202.3" r="10.5"/>
	<g>
		<path d="M711.7,206h-0.9v-5.5c-0.2,0.2-0.5,0.4-0.8,0.6c-0.3,0.2-0.6,0.3-0.9,0.5v-0.9c0.5-0.2,0.9-0.5,1.3-0.8
			c0.3-0.3,0.6-0.6,0.8-0.9h0.5V206z"/>
		<path d="M716.4,206h-0.9v-5.5c-0.2,0.2-0.5,0.4-0.8,0.6c-0.3,0.2-0.6,0.3-0.9,0.5v-0.9c0.5-0.2,0.9-0.5,1.3-0.8
			c0.3-0.3,0.6-0.6,0.8-0.9h0.5V206z"/>
	</g>
	<circle class="st5" cx="648" cy="147.4" r="10.5"/>
	<g>
		<path d="M645.8,151.1H645v-5.5c-0.3,0.2-0.5,0.4-0.8,0.6c-0.3,0.2-0.6,0.3-0.9,0.4v-0.8c0.5-0.2,0.9-0.5,1.3-0.8
			c0.3-0.3,0.6-0.6,0.8-0.9h0.5V151.1z"/>
		<path d="M652.6,150.2v0.9h-4.6c0-0.2,0-0.4,0.1-0.6c0.1-0.3,0.3-0.7,0.6-0.9c0.3-0.4,0.7-0.7,1.1-1.1c0.6-0.4,1.1-0.9,1.5-1.5
			c0.2-0.3,0.4-0.6,0.4-1c0-0.3-0.1-0.6-0.4-0.9c-0.3-0.2-0.6-0.4-1-0.4c-0.4,0-0.7,0.1-1,0.4c-0.3,0.3-0.4,0.6-0.4,1l-0.9-0.1
			c0-0.6,0.3-1.1,0.7-1.5c0.4-0.4,1-0.6,1.6-0.5c0.6,0,1.2,0.2,1.6,0.6c0.4,0.4,0.6,0.9,0.6,1.4c0,0.3-0.1,0.6-0.2,0.8
			c-0.1,0.3-0.3,0.6-0.6,0.9c-0.4,0.4-0.9,0.8-1.3,1.2c-0.5,0.4-0.9,0.7-1,0.9c-0.1,0.1-0.3,0.3-0.4,0.5L652.6,150.2z"/>
	</g>
	<circle class="st5" cx="726.7" cy="142.3" r="10.5"/>
	<g>
		<path d="M724.4,145.9h-0.8v-5.5c-0.3,0.2-0.5,0.4-0.8,0.6c-0.3,0.2-0.6,0.3-0.9,0.5v-0.8c0.5-0.2,0.9-0.5,1.3-0.8
			c0.3-0.3,0.6-0.6,0.8-0.9h0.6L724.4,145.9z"/>
		<path d="M726.6,144.1l0.9-0.1c0.1,0.4,0.2,0.8,0.5,1.1c0.2,0.2,0.5,0.3,0.9,0.3c0.4,0,0.7-0.2,1-0.4c0.3-0.3,0.4-0.6,0.4-1
			c0-0.4-0.1-0.7-0.4-1c-0.3-0.3-0.6-0.4-1-0.4c-0.2,0-0.4,0-0.6,0.1l0.1-0.8h0.3c0.4,0,0.7-0.1,1-0.3c0.3-0.2,0.5-0.5,0.5-0.9
			c0-0.3-0.1-0.6-0.3-0.8c-0.5-0.4-1.2-0.4-1.7,0c-0.2,0.3-0.4,0.6-0.4,0.9l-0.9-0.1c0.1-0.5,0.3-1,0.7-1.3c0.4-0.3,0.9-0.5,1.4-0.5
			c0.4,0,0.7,0.1,1.1,0.3c0.3,0.1,0.5,0.4,0.7,0.6c0.2,0.3,0.3,0.6,0.3,0.9c0,0.3-0.1,0.6-0.2,0.8c-0.2,0.3-0.4,0.5-0.7,0.6
			c0.4,0.1,0.8,0.3,1,0.6c0.2,0.3,0.4,0.7,0.3,1.1c0,0.6-0.2,1.2-0.7,1.6c-0.5,0.4-1.1,0.7-1.7,0.6c-0.6,0-1.1-0.2-1.5-0.5
			C727,145.1,726.7,144.6,726.6,144.1z"/>
	</g>
	<circle class="st5" cx="757" cy="96.7" r="10.5"/>
	<g>
		<path d="M754.8,100.3h-0.9v-5.5c-0.2,0.2-0.5,0.4-0.8,0.6c-0.3,0.2-0.6,0.3-0.9,0.4V95c0.5-0.2,0.9-0.5,1.3-0.8
			c0.3-0.3,0.6-0.6,0.8-0.9h0.6V100.3z"/>
		<path d="M759.8,100.3v-1.7h-3v-0.8l3.2-4.5h0.7v4.5h1v0.8h-1v1.7H759.8z M759.8,97.8v-3.2l-2.2,3.2L759.8,97.8z"/>
	</g>
	<circle class="st5" cx="710" cy="88.3" r="10.5"/>
	<g>
		<path d="M707.7,91.9h-0.8v-5.5c-0.2,0.2-0.5,0.4-0.8,0.6c-0.3,0.2-0.6,0.3-0.9,0.5v-0.8c0.5-0.2,0.9-0.5,1.3-0.8
			c0.3-0.3,0.6-0.6,0.8-0.9h0.6L707.7,91.9z"/>
		<path d="M709.9,90.1l0.9-0.1c0,0.4,0.2,0.7,0.5,1c0.2,0.2,0.6,0.3,0.9,0.3c0.4,0,0.8-0.2,1.1-0.5c0.3-0.3,0.4-0.8,0.4-1.3
			c0-0.4-0.1-0.9-0.4-1.2c-0.5-0.5-1.2-0.6-1.8-0.2c-0.2,0.1-0.4,0.3-0.5,0.5l-0.8-0.1l0.7-3.6h3.5v0.8h-2.8l-0.4,1.9
			c0.4-0.3,0.9-0.4,1.3-0.4c0.6,0,1.1,0.2,1.5,0.6c0.4,0.4,0.7,1,0.6,1.6c0,0.6-0.2,1.2-0.5,1.6c-0.9,1-2.4,1.1-3.4,0.3
			C710.2,91.1,710,90.6,709.9,90.1z"/>
	</g>
	<circle class="st5" cx="754.8" cy="40.5" r="10.5"/>
	<g>
		<path d="M752.6,44.2h-0.9v-5.5c-0.2,0.2-0.5,0.4-0.8,0.6c-0.3,0.2-0.6,0.3-0.9,0.5v-0.8c0.5-0.2,0.9-0.5,1.3-0.8
			c0.3-0.3,0.6-0.6,0.8-0.9h0.6V44.2z"/>
		<path d="M759.2,38.8l-0.9,0.1c0-0.3-0.1-0.5-0.3-0.7c-0.2-0.2-0.5-0.4-0.9-0.4c-0.3,0-0.5,0.1-0.7,0.2c-0.3,0.2-0.5,0.5-0.6,0.9
			c-0.2,0.5-0.3,1.1-0.2,1.6c0.2-0.3,0.4-0.5,0.8-0.7c0.3-0.1,0.6-0.2,0.9-0.2c0.6,0,1.1,0.2,1.5,0.6c0.4,0.4,0.6,1,0.6,1.6
			c0,0.4-0.1,0.8-0.3,1.2c-0.2,0.4-0.4,0.7-0.8,0.9c-0.3,0.2-0.7,0.3-1.1,0.3c-0.7,0-1.3-0.3-1.8-0.8c-0.5-0.8-0.8-1.7-0.7-2.6
			c-0.1-1.1,0.2-2.1,0.8-3c0.4-0.5,1.1-0.8,1.8-0.8c0.5,0,1,0.2,1.4,0.5C759,37.9,759.2,38.3,759.2,38.8z M755.7,41.8
			c0,0.3,0.1,0.6,0.2,0.9c0.1,0.3,0.3,0.5,0.5,0.6c0.2,0.1,0.5,0.2,0.7,0.2c0.4,0,0.7-0.2,0.9-0.4c0.3-0.3,0.4-0.8,0.4-1.2
			c0-0.4-0.1-0.8-0.4-1.1c-0.3-0.3-0.6-0.4-1-0.4c-0.4,0-0.7,0.1-1,0.4C755.8,41.1,755.7,41.5,755.7,41.8L755.7,41.8z"/>
	</g>
	<circle class="st5" cx="92" cy="24.5" r="10.5"/>
	<g>
		<path d="M89.8,28.2h-0.9v-5.5c-0.2,0.2-0.5,0.4-0.8,0.6c-0.3,0.2-0.6,0.3-0.9,0.5v-0.8c0.5-0.2,0.9-0.5,1.3-0.8
			c0.3-0.3,0.6-0.6,0.8-0.9h0.6V28.2z"/>
		<path d="M92.1,22v-0.8h4.6v0.7c-0.5,0.6-1,1.2-1.3,1.9c-0.4,0.8-0.8,1.6-1,2.4c-0.2,0.6-0.3,1.3-0.3,1.9h-0.9c0-0.7,0.1-1.3,0.3-2
			c0.2-0.8,0.5-1.5,0.9-2.3c0.3-0.7,0.8-1.3,1.2-1.8L92.1,22z"/>
	</g>
	<circle class="st5" cx="169.4" cy="80.9" r="10.5"/>
	<g>
		<path d="M167.1,84.6h-0.9v-5.5c-0.2,0.2-0.5,0.4-0.8,0.6c-0.3,0.2-0.6,0.3-0.9,0.5v-0.8c0.5-0.2,0.9-0.5,1.3-0.8
			c0.3-0.3,0.6-0.6,0.8-0.9h0.6V84.6z"/>
		<path d="M170.6,80.7c-0.3-0.1-0.6-0.3-0.8-0.6c-0.2-0.3-0.3-0.6-0.3-0.9c0-0.5,0.2-1,0.6-1.3c0.9-0.7,2.1-0.7,2.9,0
			c0.4,0.3,0.6,0.8,0.6,1.3c0,0.3-0.1,0.6-0.3,0.9c-0.2,0.3-0.5,0.5-0.8,0.6c0.8,0.2,1.4,1,1.3,1.8c0,0.6-0.2,1.1-0.6,1.5
			c-1,0.8-2.4,0.8-3.4,0c-0.4-0.4-0.7-1-0.6-1.5c0-0.4,0.1-0.8,0.4-1.1C169.9,81,170.3,80.8,170.6,80.7z M170.2,82.5
			c0,0.2,0.1,0.5,0.2,0.7c0.1,0.2,0.3,0.4,0.5,0.5c0.2,0.1,0.5,0.2,0.8,0.2c0.4,0,0.7-0.1,1-0.4c0.3-0.3,0.4-0.6,0.4-1
			c0-0.4-0.1-0.7-0.4-1c-0.3-0.3-0.6-0.4-1-0.4c-0.4,0-0.7,0.1-1,0.4C170.4,81.8,170.2,82.2,170.2,82.5L170.2,82.5z M170.5,79.3
			c0,0.3,0.1,0.6,0.3,0.8c0.5,0.4,1.2,0.4,1.6,0c0.2-0.2,0.3-0.5,0.3-0.8c0-0.3-0.1-0.6-0.3-0.8c-0.2-0.2-0.5-0.3-0.8-0.3
			c-0.3,0-0.6,0.1-0.8,0.3C170.6,78.7,170.5,79,170.5,79.3L170.5,79.3z"/>
	</g>
	<circle class="st5" cx="258.6" cy="66.9" r="10.5"/>
	<g>
		<path d="M256.4,70.6h-0.9v-5.5c-0.2,0.2-0.5,0.4-0.8,0.6c-0.3,0.2-0.6,0.3-0.9,0.5v-0.8c0.5-0.2,0.9-0.5,1.3-0.8
			c0.3-0.3,0.6-0.6,0.8-0.9h0.6V70.6z"/>
		<path d="M258.7,68.9l0.8-0.1c0,0.3,0.2,0.6,0.4,0.8c0.2,0.2,0.5,0.3,0.8,0.3c0.2,0,0.5-0.1,0.7-0.2c0.2-0.1,0.4-0.3,0.5-0.5
			c0.1-0.3,0.3-0.5,0.3-0.8c0.1-0.4,0.1-0.7,0.1-1.1c0,0,0-0.1,0-0.2c-0.4,0.6-1,0.9-1.7,0.9c-0.6,0-1.1-0.2-1.5-0.6
			c-0.4-0.5-0.6-1-0.6-1.7c0-0.6,0.2-1.3,0.6-1.7c0.4-0.4,1-0.7,1.6-0.6c0.4,0,0.9,0.1,1.3,0.4c0.4,0.2,0.7,0.6,0.9,1
			c0.2,0.6,0.3,1.3,0.3,2c0,0.7-0.1,1.4-0.3,2.1c-0.2,0.5-0.5,0.9-0.9,1.2c-0.4,0.3-0.9,0.4-1.4,0.4
			C259.7,70.7,258.8,69.9,258.7,68.9C258.7,68.9,258.7,68.9,258.7,68.9L258.7,68.9z M262.3,65.8c0-0.4-0.1-0.9-0.4-1.2
			c-0.2-0.3-0.6-0.4-1-0.4c-0.4,0-0.8,0.2-1,0.5c-0.3,0.3-0.5,0.8-0.4,1.2c0,0.4,0.1,0.8,0.4,1.1c0.3,0.3,0.6,0.4,1,0.4
			c0.4,0,0.7-0.1,1-0.4C262.2,66.7,262.3,66.3,262.3,65.8L262.3,65.8z"/>
	</g>
</g>
</svg>
